<svg id="svg" version="1.1" xmlns="http://www.w3.org/2000/svg" xmlns:xlink="http://www.w3.org/1999/xlink" width="400" height="404.0816326530612" viewBox="0, 0, 400,404.0816326530612"><g id="svgg"><path id="path0" d="M187.737 0.787 C 183.115 1.783,178.445 6.545,178.409 10.300 C 178.404 10.795,178.220 11.200,178.000 11.200 C 177.780 11.200,177.600 11.830,177.600 12.600 C 177.600 13.370,177.780 14.000,178.000 14.000 C 178.220 14.000,178.404 14.405,178.409 14.900 C 178.442 18.330,183.661 24.000,186.784 24.000 C 187.233 24.000,187.600 24.135,187.600 24.300 C 187.600 24.563,192.626 24.696,203.858 24.731 C 205.650 24.736,207.222 24.912,207.352 25.122 C 207.481 25.332,208.392 25.412,209.375 25.302 C 210.358 25.191,211.486 25.240,211.881 25.412 C 212.277 25.583,212.928 25.682,213.329 25.631 C 214.210 25.521,221.154 26.353,222.000 26.671 C 222.330 26.795,223.050 26.932,223.600 26.975 C 226.364 27.194,229.200 27.730,229.200 28.034 C 229.200 28.221,229.451 28.279,229.758 28.161 C 230.472 27.887,242.956 30.765,243.134 31.245 C 243.208 31.443,243.414 31.515,243.591 31.405 C 243.911 31.208,251.785 33.412,252.585 33.923 C 252.813 34.069,253.135 34.213,253.300 34.244 C 253.465 34.275,253.690 34.345,253.800 34.400 C 253.910 34.455,254.180 34.545,254.400 34.600 C 254.620 34.655,254.890 34.745,255.000 34.800 C 255.110 34.855,255.335 34.928,255.500 34.962 C 257.676 35.416,270.962 41.076,277.292 44.246 C 324.332 67.805,360.281 113.876,371.180 164.569 C 371.649 166.752,371.941 168.777,371.829 169.069 C 371.717 169.361,371.768 169.600,371.943 169.600 C 372.338 169.600,373.329 175.868,373.015 176.376 C 372.889 176.579,372.982 176.865,373.219 177.012 C 373.457 177.159,373.602 177.757,373.541 178.340 C 373.480 178.923,373.554 179.602,373.706 179.849 C 373.859 180.095,374.068 181.853,374.172 183.755 C 374.276 185.656,374.472 187.393,374.609 187.614 C 374.745 187.835,374.823 188.958,374.780 190.108 C 374.738 191.259,374.839 192.527,375.005 192.927 C 375.170 193.327,375.217 195.356,375.108 197.437 C 374.996 199.594,375.072 201.321,375.285 201.453 C 375.491 201.580,375.624 203.510,375.580 205.742 C 375.536 207.974,375.597 210.070,375.716 210.400 C 375.835 210.730,376.034 211.858,376.159 212.907 C 376.648 217.011,381.568 222.000,385.126 222.000 C 385.607 222.000,386.000 222.135,385.999 222.300 C 385.999 222.642,389.694 222.716,390.000 222.381 C 390.110 222.260,390.948 221.943,391.862 221.676 C 394.029 221.043,397.124 218.230,398.615 215.539 L 399.800 213.400 399.741 203.600 C 399.640 186.639,397.877 170.896,394.655 158.161 C 394.316 156.820,393.948 155.290,393.837 154.761 C 393.428 152.799,390.399 142.833,388.683 137.800 C 367.333 75.183,313.247 24.343,250.600 8.005 C 247.960 7.317,245.530 6.646,245.200 6.515 C 244.870 6.384,244.420 6.254,244.200 6.226 C 242.789 6.046,240.137 5.470,239.807 5.273 C 239.591 5.144,239.141 4.997,238.807 4.947 C 238.473 4.898,237.480 4.749,236.600 4.618 C 235.720 4.486,234.640 4.265,234.200 4.127 C 233.760 3.988,233.040 3.833,232.600 3.781 C 232.160 3.729,230.720 3.491,229.400 3.253 C 218.567 1.298,192.523 -0.243,187.737 0.787 M185.932 48.851 C 185.640 48.990,184.770 49.376,184.000 49.710 C 176.530 52.948,174.706 63.043,180.538 68.875 C 183.414 71.751,185.651 72.304,195.619 72.604 C 202.775 72.819,206.409 73.019,209.200 73.352 C 210.190 73.471,211.990 73.660,213.200 73.773 C 214.410 73.886,215.850 74.099,216.400 74.247 C 216.950 74.395,217.670 74.558,218.000 74.609 C 218.330 74.660,219.230 74.830,220.000 74.986 C 220.770 75.142,221.760 75.322,222.200 75.385 C 234.181 77.116,254.658 85.573,267.800 94.218 C 298.996 114.739,321.747 150.169,326.225 185.200 C 327.174 192.629,327.573 197.047,327.831 203.000 C 328.425 216.673,329.382 219.451,334.400 222.063 C 339.770 224.859,348.753 221.648,350.806 216.200 C 352.100 212.762,352.489 201.576,351.596 193.453 C 351.357 191.282,351.254 189.413,351.367 189.300 C 351.480 189.187,351.402 188.777,351.194 188.390 C 350.987 188.002,350.740 186.630,350.645 185.342 C 350.550 184.054,350.347 182.685,350.194 182.300 C 350.040 181.915,350.016 181.336,350.140 181.013 C 350.264 180.690,350.217 180.334,350.035 180.222 C 349.854 180.110,349.581 179.069,349.428 177.909 C 341.628 118.541,288.392 63.524,227.400 51.800 C 224.320 51.208,221.530 50.622,221.200 50.499 C 220.870 50.375,220.356 50.314,220.059 50.364 C 219.761 50.413,219.221 50.326,218.859 50.170 C 218.496 50.013,217.709 49.924,217.109 49.972 C 216.509 50.019,215.813 49.932,215.562 49.776 C 215.311 49.621,214.362 49.452,213.453 49.400 C 212.544 49.349,210.630 49.200,209.200 49.071 C 205.448 48.732,186.563 48.554,185.932 48.851 M188.001 96.900 C 188.000 97.065,187.710 97.200,187.356 97.200 C 185.099 97.200,179.505 101.646,178.943 103.887 C 178.817 104.386,178.571 104.705,178.395 104.597 C 178.219 104.488,178.169 104.759,178.284 105.199 C 178.399 105.640,178.337 106.000,178.147 106.000 C 177.956 106.000,177.800 107.350,177.800 109.000 C 177.800 110.650,177.907 112.000,178.037 112.000 C 178.167 112.000,178.481 112.694,178.735 113.542 C 180.310 118.799,184.330 120.789,193.400 120.802 C 197.903 120.809,199.997 120.942,199.600 121.197 C 199.203 121.451,199.937 121.495,201.763 121.327 C 203.625 121.155,204.443 121.208,204.270 121.486 C 204.102 121.759,204.645 121.829,205.867 121.691 C 207.110 121.551,207.634 121.621,207.459 121.904 C 207.298 122.166,207.496 122.248,207.981 122.121 C 209.112 121.825,216.259 123.434,221.600 125.186 C 242.718 132.112,260.279 147.015,270.168 166.400 C 272.530 171.031,275.348 178.237,275.010 178.783 C 274.892 178.975,274.969 179.192,275.182 179.266 C 275.764 179.468,277.673 187.050,277.741 189.431 C 277.773 190.577,277.959 191.418,278.154 191.300 C 278.352 191.181,278.426 192.077,278.323 193.324 C 278.207 194.723,278.284 195.472,278.528 195.321 C 278.776 195.168,278.842 196.407,278.710 198.732 C 278.595 200.741,278.631 202.304,278.790 202.206 C 278.949 202.108,279.197 204.137,279.341 206.714 C 279.876 216.288,282.267 220.607,287.700 221.818 C 288.305 221.953,288.800 222.184,288.800 222.332 C 288.800 222.479,289.970 222.600,291.400 222.600 C 292.830 222.600,294.000 222.479,294.000 222.332 C 294.000 222.184,294.521 221.949,295.157 221.809 C 298.266 221.127,302.056 217.243,302.637 214.143 C 302.776 213.404,303.004 212.799,303.145 212.799 C 303.501 212.797,303.378 199.558,303.013 198.701 C 302.849 198.317,302.781 196.562,302.861 194.801 C 302.941 193.040,302.852 191.600,302.664 191.600 C 302.476 191.600,302.385 190.700,302.461 189.600 C 302.538 188.500,302.468 187.555,302.307 187.500 C 302.146 187.445,301.966 186.277,301.907 184.903 C 301.848 183.530,301.696 182.405,301.569 182.403 C 301.442 182.402,301.127 181.251,300.868 179.847 C 296.342 155.283,276.336 127.433,252.889 113.056 C 243.685 107.413,228.925 101.185,221.414 99.776 C 220.636 99.630,220.000 99.340,220.000 99.132 C 220.000 98.923,219.838 98.853,219.639 98.976 C 219.244 99.220,211.062 97.932,210.899 97.600 C 210.844 97.487,209.989 97.459,208.999 97.537 C 208.010 97.616,207.200 97.527,207.201 97.340 C 207.201 97.153,206.114 97.061,204.784 97.136 C 203.454 97.211,202.059 97.145,201.683 96.988 C 200.760 96.603,188.002 96.521,188.001 96.900 M144.158 108.068 C 144.066 108.217,143.465 108.454,142.822 108.595 C 140.374 109.133,138.296 111.625,134.912 118.082 C 126.628 133.887,117.709 151.173,98.112 189.400 C 94.052 197.320,87.528 210.010,83.614 217.600 C 73.484 237.245,62.154 259.278,57.389 268.600 C 55.140 273.000,50.856 281.377,47.869 287.216 L 42.439 297.831 23.505 317.048 C -2.179 343.113,-2.540 343.681,2.155 350.629 C 6.991 357.787,48.599 398.911,52.271 400.162 C 59.025 402.464,61.782 400.695,79.600 382.631 C 89.283 372.814,103.810 359.018,105.306 358.217 L 106.769 357.435 124.285 374.829 C 153.886 404.226,155.294 405.149,167.600 403.232 C 179.490 401.379,193.091 384.836,191.153 374.586 C 190.947 373.494,190.810 372.240,190.848 371.800 C 190.887 371.360,190.825 370.730,190.711 370.400 C 190.596 370.070,190.213 368.806,189.860 367.592 C 188.600 363.264,186.010 360.207,168.462 342.341 C 162.488 336.259,157.600 331.185,157.600 331.067 C 157.600 330.949,161.155 329.013,165.500 326.765 C 169.845 324.517,177.360 320.569,182.200 317.992 C 187.040 315.414,195.590 310.920,201.200 308.005 C 218.584 298.970,221.387 297.499,221.800 297.191 C 222.020 297.027,229.940 292.889,239.400 287.996 C 258.460 278.137,280.706 266.226,285.977 263.058 C 289.968 260.659,291.502 258.712,292.601 254.652 L 293.310 252.033 292.254 249.916 C 289.536 244.470,278.082 232.556,217.791 172.460 C 169.790 124.616,154.246 109.446,152.474 108.721 C 151.219 108.206,144.403 107.672,144.158 108.068 M206.146 194.852 C 236.003 224.581,260.376 249.072,260.307 249.278 C 260.239 249.484,256.676 251.498,252.391 253.753 C 248.106 256.009,240.910 259.801,236.400 262.181 C 231.890 264.561,222.890 269.294,216.400 272.697 C 209.910 276.101,197.670 282.533,189.200 286.990 C 180.730 291.448,170.560 296.767,166.600 298.811 C 162.640 300.855,155.440 304.633,150.600 307.208 C 145.760 309.782,136.310 314.729,129.600 318.201 C 122.890 321.673,115.330 325.631,112.800 326.996 C 103.551 331.989,94.897 336.400,94.353 336.400 C 94.047 336.400,87.248 329.850,79.245 321.845 L 64.695 307.291 68.791 299.345 C 77.275 282.892,96.059 246.378,104.570 229.798 C 116.963 205.655,132.834 174.951,144.577 152.400 C 150.458 141.107,150.637 140.800,151.379 140.800 C 151.643 140.800,176.288 165.123,206.146 194.852 M62.601 339.201 L 75.797 352.401 66.197 362.001 L 56.597 371.601 43.227 358.227 L 29.858 344.853 39.216 335.427 C 44.363 330.242,48.761 326.000,48.990 326.000 C 49.218 326.000,55.343 331.940,62.601 339.201 M136.864 345.673 C 139.467 347.713,164.776 372.951,165.795 374.523 C 166.581 375.736,166.031 377.063,164.286 378.163 C 162.956 379.002,160.546 376.926,145.110 361.646 C 127.783 344.493,129.088 346.054,131.100 344.888 C 133.305 343.610,134.425 343.763,136.864 345.673 " stroke="none" fill="#040404" fill-rule="evenodd"></path><path id="path1" d="M191.712 0.295 C 192.764 0.377,194.384 0.376,195.312 0.292 C 196.240 0.208,195.380 0.141,193.400 0.142 C 191.420 0.143,190.660 0.212,191.712 0.295 M206.705 0.683 C 207.202 0.779,207.922 0.775,208.305 0.675 C 208.687 0.575,208.280 0.496,207.400 0.501 C 206.520 0.505,206.207 0.587,206.705 0.683 M280.000 17.941 C 280.000 18.314,283.629 20.104,283.879 19.855 C 283.978 19.755,283.687 19.554,283.230 19.410 C 282.774 19.265,282.400 18.996,282.400 18.812 C 282.400 18.629,281.860 18.290,281.200 18.060 C 280.540 17.830,280.000 17.776,280.000 17.941 M180.000 20.243 C 180.000 20.463,180.630 21.254,181.400 22.000 C 182.170 22.746,182.800 23.177,182.800 22.957 C 182.800 22.737,182.170 21.946,181.400 21.200 C 180.630 20.454,180.000 20.023,180.000 20.243 M285.233 20.551 C 285.642 20.921,288.800 22.395,288.800 22.216 C 288.800 21.989,285.781 20.400,285.349 20.400 C 285.194 20.400,285.142 20.468,285.233 20.551 M183.776 23.813 C 184.204 24.136,184.744 24.394,184.976 24.387 C 185.209 24.380,185.051 24.110,184.624 23.787 C 184.196 23.464,183.656 23.206,183.424 23.213 C 183.191 23.220,183.349 23.490,183.776 23.813 M188.159 24.867 C 188.045 25.050,188.593 25.200,189.376 25.200 C 190.159 25.200,190.800 25.130,190.800 25.045 C 190.800 24.717,188.354 24.551,188.159 24.867 M202.000 25.200 C 202.000 25.420,202.675 25.582,203.500 25.560 C 204.839 25.525,204.892 25.486,204.000 25.200 C 202.570 24.742,202.000 24.742,202.000 25.200 M299.657 28.191 C 299.978 28.511,306.948 32.850,307.800 33.260 L 308.600 33.644 307.800 32.994 C 305.957 31.496,298.657 27.190,299.657 28.191 M312.400 36.345 C 312.400 36.545,312.850 37.003,313.400 37.363 C 313.950 37.724,314.400 37.855,314.400 37.655 C 314.400 37.455,313.950 36.997,313.400 36.637 C 312.850 36.276,312.400 36.145,312.400 36.345 M267.600 40.357 C 267.600 40.801,268.831 41.303,269.146 40.988 C 269.273 40.861,269.112 40.589,268.788 40.384 C 268.040 39.911,267.600 39.901,267.600 40.357 M270.400 41.522 C 270.400 41.938,274.835 44.099,275.114 43.819 C 275.439 43.494,275.180 43.324,272.680 42.218 C 271.426 41.664,270.400 41.350,270.400 41.522 M320.000 42.200 C 320.274 42.530,320.678 42.800,320.898 42.800 C 321.121 42.800,321.078 42.535,320.800 42.200 C 320.526 41.870,320.122 41.600,319.902 41.600 C 319.679 41.600,319.722 41.865,320.000 42.200 M322.600 44.207 C 324.529 45.821,325.555 46.179,323.800 44.627 C 322.920 43.849,322.020 43.210,321.800 43.208 C 321.580 43.206,321.940 43.656,322.600 44.207 M275.600 44.192 C 275.600 44.393,278.609 46.000,278.984 46.000 C 279.103 46.000,279.200 45.809,279.200 45.576 C 279.200 45.343,279.020 45.264,278.800 45.400 C 278.580 45.536,278.400 45.485,278.400 45.288 C 278.400 45.090,277.942 44.720,277.381 44.464 C 276.312 43.977,275.600 43.868,275.600 44.192 M325.799 46.798 C 325.934 47.017,326.440 47.403,326.922 47.656 C 327.794 48.113,327.795 48.110,327.038 47.258 C 326.275 46.398,325.336 46.050,325.799 46.798 M187.300 48.276 C 187.685 48.376,188.315 48.376,188.700 48.276 C 189.085 48.175,188.770 48.093,188.000 48.093 C 187.230 48.093,186.915 48.175,187.300 48.276 M203.105 48.283 C 203.602 48.379,204.322 48.375,204.705 48.275 C 205.087 48.175,204.680 48.096,203.800 48.101 C 202.920 48.105,202.607 48.187,203.105 48.283 M328.000 48.552 C 328.000 48.635,328.855 49.386,329.900 50.220 L 331.800 51.737 330.219 50.069 C 328.843 48.616,328.000 48.040,328.000 48.552 M179.500 52.196 C 177.749 53.839,177.138 54.662,177.915 54.333 C 178.277 54.181,181.780 50.396,181.551 50.407 C 181.468 50.411,180.545 51.216,179.500 52.196 M288.144 50.892 C 291.927 53.478,298.534 57.600,298.672 57.461 C 298.856 57.278,290.118 51.655,288.400 50.852 C 287.560 50.459,287.519 50.465,288.144 50.892 M332.800 52.614 C 332.800 53.129,346.310 66.623,346.568 66.365 C 346.676 66.257,343.623 63.030,339.782 59.194 C 335.942 55.358,332.800 52.397,332.800 52.614 M177.033 55.457 C 176.699 56.330,177.143 56.736,177.616 55.988 C 178.089 55.240,178.099 54.800,177.643 54.800 C 177.446 54.800,177.172 55.096,177.033 55.457 M245.000 56.000 C 245.136 56.220,245.642 56.397,246.124 56.394 C 246.836 56.389,246.888 56.315,246.400 56.000 C 245.612 55.491,244.685 55.491,245.000 56.000 M176.400 58.000 C 176.400 58.747,176.507 58.853,176.880 58.480 C 177.253 58.107,177.253 57.893,176.880 57.520 C 176.507 57.147,176.400 57.253,176.400 58.000 M176.400 63.200 C 176.400 63.947,176.507 64.053,176.880 63.680 C 177.253 63.307,177.253 63.093,176.880 62.720 C 176.507 62.347,176.400 62.453,176.400 63.200 M261.633 62.554 C 262.040 62.929,269.200 66.387,269.200 66.208 C 269.200 65.986,262.177 62.400,261.741 62.400 C 261.590 62.400,261.542 62.469,261.633 62.554 M305.600 62.687 C 305.600 63.114,311.208 67.725,311.443 67.491 C 311.537 67.396,310.261 66.200,308.607 64.832 C 306.953 63.464,305.600 62.499,305.600 62.687 M176.800 65.020 C 176.800 65.141,177.075 65.771,177.410 66.420 C 178.276 68.093,178.926 67.892,178.119 66.200 C 177.545 64.995,176.800 64.329,176.800 65.020 M179.200 68.245 C 179.200 68.468,179.784 69.179,180.499 69.825 L 181.797 71.000 180.805 69.800 C 180.259 69.140,179.674 68.429,179.506 68.220 C 179.316 67.984,179.200 67.994,179.200 68.245 M312.770 68.946 C 313.303 69.526,313.910 70.000,314.119 70.000 C 314.656 70.000,313.628 68.840,312.633 68.324 C 311.890 67.938,311.904 68.005,312.770 68.946 M349.583 69.918 C 350.305 70.864,351.001 71.533,351.128 71.405 C 351.256 71.278,350.665 70.504,349.815 69.687 L 348.270 68.200 349.583 69.918 M316.585 72.337 C 317.677 73.472,318.745 74.400,318.960 74.400 C 319.476 74.400,317.317 72.146,315.800 71.100 C 314.975 70.532,315.220 70.918,316.585 72.337 M280.000 72.800 C 280.000 73.020,280.193 73.200,280.428 73.200 C 280.878 73.200,284.225 75.394,285.129 76.281 C 285.743 76.884,286.000 76.937,286.000 76.459 C 286.000 76.141,280.658 72.400,280.205 72.400 C 280.092 72.400,280.000 72.580,280.000 72.800 M352.784 73.523 C 353.281 74.251,353.793 74.740,353.922 74.611 C 354.052 74.482,353.645 73.886,353.019 73.288 L 351.880 72.200 352.784 73.523 M191.100 73.089 C 191.815 73.178,192.985 73.178,193.700 73.089 C 194.415 73.001,193.830 72.928,192.400 72.928 C 190.970 72.928,190.385 73.001,191.100 73.089 M355.146 76.200 C 356.433 78.100,357.971 79.837,357.977 79.400 C 357.981 79.180,357.162 78.100,356.158 77.000 C 355.155 75.900,354.699 75.540,355.146 76.200 M287.000 77.429 C 287.440 77.761,288.160 78.342,288.600 78.721 C 289.040 79.100,290.570 80.279,292.000 81.341 C 294.408 83.129,294.287 82.976,291.000 80.075 C 288.877 78.201,287.011 76.822,286.600 76.824 C 286.380 76.825,286.560 77.097,287.000 77.429 M325.600 81.038 C 325.600 81.256,326.432 82.236,327.448 83.217 C 328.464 84.198,329.109 84.640,328.881 84.200 C 328.344 83.165,325.600 80.521,325.600 81.038 M248.400 84.343 C 248.400 84.754,249.612 85.322,249.892 85.042 C 249.989 84.944,249.693 84.664,249.234 84.418 C 248.775 84.173,248.400 84.139,248.400 84.343 M297.600 85.725 C 297.600 85.794,298.185 86.379,298.900 87.025 L 300.200 88.200 299.025 86.900 C 297.930 85.688,297.600 85.416,297.600 85.725 M330.000 85.881 C 330.000 86.090,330.474 86.697,331.054 87.230 C 331.995 88.096,332.062 88.110,331.676 87.367 C 331.160 86.372,330.000 85.344,330.000 85.881 M255.180 87.798 C 257.039 88.774,258.633 89.500,258.722 89.412 C 258.900 89.233,252.600 85.993,252.109 86.012 C 251.939 86.018,253.321 86.822,255.180 87.798 M362.800 86.150 C 362.800 86.233,364.083 88.168,365.652 90.450 C 367.221 92.733,368.398 94.288,368.268 93.908 C 367.770 92.451,362.800 85.400,362.800 86.150 M332.400 88.676 C 332.400 88.896,332.760 89.402,333.200 89.800 C 333.640 90.198,334.000 90.344,334.000 90.124 C 334.000 89.904,333.640 89.398,333.200 89.000 C 332.760 88.602,332.400 88.456,332.400 88.676 M306.263 93.961 C 309.088 96.799,311.481 99.043,311.580 98.947 C 311.812 98.723,301.924 88.800,301.469 88.800 C 301.280 88.800,303.437 91.122,306.263 93.961 M335.002 92.002 C 335.402 92.444,335.815 92.718,335.921 92.612 C 336.190 92.343,335.192 91.200,334.689 91.200 C 334.462 91.200,334.603 91.561,335.002 92.002 M337.027 94.600 C 337.614 95.370,338.261 96.000,338.465 96.000 C 338.668 96.000,338.331 95.370,337.717 94.600 C 336.260 92.774,335.634 92.774,337.027 94.600 M368.819 95.000 C 368.820 95.220,369.446 96.382,370.210 97.581 C 370.975 98.781,371.596 99.591,371.591 99.381 C 371.579 98.862,368.818 94.497,368.819 95.000 M188.400 96.400 C 188.400 96.901,188.824 96.901,189.600 96.400 C 190.085 96.086,190.028 96.011,189.300 96.006 C 188.805 96.003,188.400 96.180,188.400 96.400 M195.233 96.146 C 195.694 96.549,199.600 96.789,199.600 96.414 C 199.600 96.177,198.628 96.000,197.333 96.000 C 196.087 96.000,195.142 96.066,195.233 96.146 M205.339 96.854 C 205.868 97.161,206.202 97.158,206.519 96.841 C 206.840 96.520,206.641 96.403,205.780 96.412 C 204.746 96.423,204.691 96.477,205.339 96.854 M184.900 97.065 C 184.081 97.395,184.333 97.943,185.200 97.716 C 185.640 97.601,186.000 97.348,186.000 97.153 C 186.000 96.772,185.688 96.747,184.900 97.065 M271.600 97.564 C 272.150 98.014,272.780 98.383,273.000 98.385 C 273.428 98.388,272.705 97.834,271.400 97.160 C 270.869 96.885,270.936 97.021,271.600 97.564 M212.400 97.600 C 212.400 97.820,212.670 98.000,213.000 98.000 C 213.330 98.000,213.600 97.820,213.600 97.600 C 213.600 97.380,213.330 97.200,213.000 97.200 C 212.670 97.200,212.400 97.380,212.400 97.600 M182.000 99.000 C 181.717 99.341,181.576 99.709,181.686 99.819 C 181.796 99.929,182.117 99.741,182.400 99.400 C 182.683 99.059,182.824 98.691,182.714 98.581 C 182.604 98.471,182.283 98.659,182.000 99.000 M312.400 100.525 C 312.400 100.594,312.985 101.179,313.700 101.825 L 315.000 103.000 313.825 101.700 C 312.730 100.488,312.400 100.216,312.400 100.525 M277.315 102.297 C 277.899 102.880,278.497 103.236,278.645 103.088 C 279.034 102.699,278.117 101.724,277.115 101.462 C 276.322 101.254,276.337 101.319,277.315 102.297 M342.400 101.415 C 342.400 101.692,347.176 108.871,347.712 109.400 C 348.309 109.989,347.800 109.115,345.094 104.900 C 342.902 101.487,342.400 100.838,342.400 101.415 M279.600 103.476 C 279.600 103.696,279.960 104.202,280.400 104.600 C 280.840 104.998,281.200 105.144,281.200 104.924 C 281.200 104.704,280.840 104.198,280.400 103.800 C 279.960 103.402,279.600 103.256,279.600 103.476 M283.173 106.928 C 283.928 107.731,284.621 108.313,284.713 108.221 C 285.000 107.933,284.425 107.271,283.088 106.352 L 281.800 105.467 283.173 106.928 M375.400 106.800 C 375.741 107.460,376.111 108.000,376.221 108.000 C 376.331 108.000,376.141 107.460,375.800 106.800 C 375.459 106.140,375.089 105.600,374.979 105.600 C 374.869 105.600,375.059 106.140,375.400 106.800 M318.434 107.600 C 319.179 108.590,319.971 109.603,320.194 109.851 C 320.417 110.099,320.870 110.701,321.200 111.188 C 322.223 112.700,323.599 114.218,323.600 113.836 C 323.600 113.328,320.846 109.754,318.795 107.600 L 317.080 105.800 318.434 107.600 M242.033 106.553 C 242.441 106.927,248.000 109.589,248.000 109.410 C 248.000 109.187,242.578 106.400,242.143 106.400 C 241.991 106.400,241.942 106.469,242.033 106.553 M138.903 110.312 C 136.800 112.156,132.159 120.400,133.224 120.400 C 133.457 120.400,133.545 120.235,133.421 120.034 C 133.297 119.833,133.331 119.608,133.498 119.534 C 133.664 119.460,134.328 118.275,134.974 116.900 C 135.619 115.525,136.282 114.400,136.447 114.400 C 136.611 114.400,136.867 113.995,137.016 113.500 C 137.164 113.005,138.114 111.745,139.127 110.700 C 141.330 108.428,141.236 108.266,138.903 110.312 M155.800 110.800 C 156.883 111.900,157.860 112.800,157.970 112.800 C 158.080 112.800,157.283 111.900,156.200 110.800 C 155.117 109.700,154.140 108.800,154.030 108.800 C 153.920 108.800,154.717 109.700,155.800 110.800 M348.331 110.652 C 349.215 112.264,350.107 113.141,349.422 111.725 C 349.083 111.024,348.606 110.328,348.363 110.177 C 348.046 109.981,348.037 110.116,348.331 110.652 M288.400 111.800 C 289.146 112.570,289.847 113.200,289.957 113.200 C 290.067 113.200,289.546 112.570,288.800 111.800 C 288.054 111.030,287.353 110.400,287.243 110.400 C 287.133 110.400,287.654 111.030,288.400 111.800 M324.000 115.000 C 324.000 115.330,324.180 115.600,324.400 115.600 C 324.620 115.600,324.800 115.788,324.800 116.017 C 324.800 116.246,325.160 116.820,325.600 117.292 C 326.040 117.764,326.624 118.656,326.897 119.275 C 327.328 120.248,328.000 120.809,328.000 120.195 C 328.000 119.923,324.323 114.400,324.141 114.400 C 324.064 114.400,324.000 114.670,324.000 115.000 M160.400 115.130 C 160.400 115.311,161.615 116.614,163.100 118.024 C 171.692 126.187,171.998 126.419,166.626 120.700 C 161.497 115.239,160.400 114.258,160.400 115.130 M379.600 115.016 C 379.600 115.492,381.337 118.619,381.754 118.894 C 381.999 119.056,382.059 119.191,381.886 119.194 C 381.713 119.197,381.773 119.575,382.018 120.034 C 382.264 120.493,382.572 120.761,382.704 120.630 C 383.014 120.319,380.762 115.600,380.303 115.600 C 380.110 115.600,380.064 115.420,380.200 115.200 C 380.336 114.980,380.257 114.800,380.024 114.800 C 379.791 114.800,379.600 114.897,379.600 115.016 M293.000 116.800 C 294.635 118.474,295.271 118.893,294.368 117.700 C 293.190 116.144,292.239 115.200,291.849 115.200 C 291.623 115.200,292.141 115.920,293.000 116.800 M258.800 116.451 C 258.800 116.684,259.148 116.966,259.572 117.077 C 259.997 117.188,260.441 117.531,260.560 117.839 C 260.797 118.457,261.600 118.612,261.600 118.040 C 261.600 117.841,260.970 117.307,260.200 116.853 C 259.430 116.399,258.800 116.218,258.800 116.451 M180.000 116.925 C 180.000 116.994,180.585 117.579,181.300 118.225 L 182.600 119.400 181.425 118.100 C 180.330 116.888,180.000 116.616,180.000 116.925 M262.000 118.786 C 262.000 118.998,262.360 119.365,262.800 119.600 C 263.681 120.072,263.875 119.635,263.120 118.880 C 262.542 118.302,262.000 118.256,262.000 118.786 M295.802 120.002 C 296.202 120.444,296.615 120.718,296.721 120.612 C 296.990 120.343,295.992 119.200,295.489 119.200 C 295.262 119.200,295.403 119.561,295.802 120.002 M264.000 120.554 C 264.000 120.639,264.495 121.027,265.100 121.416 L 266.200 122.124 265.438 121.262 C 264.764 120.499,264.000 120.123,264.000 120.554 M186.800 121.200 C 186.800 121.420,187.070 121.600,187.400 121.600 C 187.730 121.600,188.000 121.420,188.000 121.200 C 188.000 120.980,187.730 120.800,187.400 120.800 C 187.070 120.800,186.800 120.980,186.800 121.200 M200.800 121.600 C 200.800 121.820,201.160 122.000,201.600 122.000 C 202.040 122.000,202.400 121.820,202.400 121.600 C 202.400 121.380,202.040 121.200,201.600 121.200 C 201.160 121.200,200.800 121.380,200.800 121.600 M297.116 121.843 C 297.818 123.154,298.930 123.968,298.746 123.035 C 298.666 122.628,298.167 122.008,297.638 121.658 C 296.710 121.042,296.691 121.049,297.116 121.843 M204.800 122.000 C 204.800 122.220,205.070 122.400,205.400 122.400 C 205.730 122.400,206.000 122.220,206.000 122.000 C 206.000 121.780,205.730 121.600,205.400 121.600 C 205.070 121.600,204.800 121.780,204.800 122.000 M207.600 122.400 C 207.600 122.620,207.870 122.800,208.200 122.800 C 208.530 122.800,208.800 122.620,208.800 122.400 C 208.800 122.180,208.530 122.000,208.200 122.000 C 207.870 122.000,207.600 122.180,207.600 122.400 M266.620 122.706 C 266.829 122.874,267.540 123.459,268.200 124.005 L 269.400 124.997 268.225 123.699 C 267.579 122.984,266.868 122.400,266.645 122.400 C 266.394 122.400,266.384 122.516,266.620 122.706 M355.228 122.600 C 355.228 122.820,355.486 123.450,355.800 124.000 C 356.114 124.550,356.372 124.820,356.372 124.600 C 356.372 124.380,356.114 123.750,355.800 123.200 C 355.486 122.650,355.228 122.380,355.228 122.600 M299.200 123.730 C 299.200 124.177,302.132 128.002,302.326 127.808 C 302.420 127.714,301.903 126.864,301.177 125.918 C 299.426 123.638,299.200 123.388,299.200 123.730 M272.216 127.976 C 273.297 129.063,274.264 129.870,274.365 129.768 C 274.614 129.519,271.137 126.000,270.643 126.000 C 270.428 126.000,271.136 126.889,272.216 127.976 M332.400 128.400 C 332.849 129.280,333.306 130.000,333.416 130.000 C 333.526 130.000,333.249 129.280,332.800 128.400 C 332.351 127.520,331.894 126.800,331.784 126.800 C 331.674 126.800,331.951 127.520,332.400 128.400 M302.800 128.513 C 302.800 128.895,305.650 133.200,305.903 133.200 C 306.007 133.200,305.772 132.705,305.382 132.100 C 303.644 129.408,302.800 128.236,302.800 128.513 M234.366 131.409 C 236.657 132.615,238.593 133.541,238.667 133.467 C 238.837 133.296,231.023 129.197,230.550 129.209 C 230.358 129.213,232.075 130.204,234.366 131.409 M358.400 129.600 C 358.400 129.820,358.568 130.000,358.773 130.000 C 358.978 130.000,359.265 130.374,359.410 130.830 C 359.554 131.287,359.753 131.580,359.851 131.482 C 360.115 131.218,359.128 129.200,358.736 129.200 C 358.551 129.200,358.400 129.380,358.400 129.600 M125.179 135.242 C 123.844 137.906,122.815 140.148,122.892 140.225 C 122.969 140.302,124.149 138.123,125.514 135.383 C 126.879 132.642,127.908 130.400,127.801 130.400 C 127.694 130.400,126.514 132.579,125.179 135.242 M176.800 131.070 C 176.800 131.274,179.095 133.674,181.900 136.403 C 184.705 139.132,192.850 147.131,200.000 154.179 C 207.150 161.226,211.470 165.384,209.600 163.419 C 199.645 152.957,176.800 130.425,176.800 131.070 M335.685 134.585 C 336.608 136.447,337.428 137.905,337.507 137.826 C 337.685 137.649,334.465 131.200,334.198 131.200 C 334.093 131.200,334.761 132.723,335.685 134.585 M276.998 132.911 C 277.611 133.742,278.212 134.321,278.335 134.198 C 278.458 134.075,277.957 133.395,277.222 132.687 L 275.885 131.400 276.998 132.911 M279.184 135.571 C 279.442 136.052,279.911 136.544,280.226 136.665 C 280.542 136.787,280.800 137.126,280.800 137.419 C 280.800 138.019,281.536 138.597,281.872 138.261 C 282.150 137.983,280.633 136.039,279.543 135.275 C 278.760 134.726,278.741 134.742,279.184 135.571 M241.600 135.324 C 241.600 135.417,242.365 135.998,243.300 136.615 C 244.235 137.232,244.789 137.480,244.531 137.168 C 244.034 136.567,241.600 135.036,241.600 135.324 M388.632 136.100 C 389.399 138.521,390.345 140.954,390.371 140.578 C 390.411 140.000,388.773 135.200,388.536 135.200 C 388.432 135.200,388.475 135.605,388.632 136.100 M282.239 139.138 C 282.100 139.361,282.182 139.665,282.420 139.812 C 283.035 140.193,283.432 139.672,282.918 139.158 C 282.631 138.871,282.407 138.864,282.239 139.138 M149.391 144.256 C 148.346 146.205,147.050 148.579,146.510 149.531 C 145.971 150.484,145.615 151.348,145.720 151.453 C 145.825 151.558,147.026 149.519,148.390 146.922 C 151.295 141.388,151.020 141.753,151.800 142.400 C 152.773 143.208,153.051 142.473,152.123 141.545 L 151.290 140.712 149.391 144.256 M249.634 141.589 C 250.280 142.573,251.210 143.139,251.187 142.533 C 251.181 142.350,250.686 141.845,250.087 141.411 L 249.000 140.623 249.634 141.589 M310.801 141.720 C 310.799 142.273,312.050 144.484,312.251 144.282 C 312.357 144.177,312.074 143.485,311.623 142.745 C 311.172 142.005,310.802 141.544,310.801 141.720 M120.154 145.300 C 119.572 146.455,118.894 147.532,118.648 147.694 C 118.394 147.860,118.373 147.993,118.600 148.000 C 118.820 148.007,118.730 148.187,118.400 148.400 C 118.008 148.653,117.972 148.790,118.295 148.794 C 118.567 148.797,119.424 147.540,120.200 146.000 C 120.976 144.460,121.521 143.200,121.412 143.200 C 121.303 143.200,120.737 144.145,120.154 145.300 M254.589 146.355 C 256.123 147.920,257.428 149.200,257.489 149.200 C 258.151 149.200,253.856 144.553,252.609 143.920 C 252.164 143.694,253.055 144.790,254.589 146.355 M313.600 147.389 C 313.600 147.864,315.391 151.200,315.645 151.200 C 315.803 151.200,315.551 150.300,315.086 149.200 C 314.389 147.549,313.600 146.588,313.600 147.389 M208.713 198.651 C 236.745 226.702,259.796 249.538,259.936 249.397 C 260.198 249.135,159.508 148.597,158.373 147.987 C 158.028 147.802,180.681 170.601,208.713 198.651 M258.000 149.785 C 258.000 149.886,258.846 150.831,259.879 151.885 C 261.750 153.791,261.572 153.279,259.526 150.866 C 258.538 149.702,258.000 149.320,258.000 149.785 M292.525 155.955 C 293.666 158.350,294.672 160.243,294.761 160.161 C 294.953 159.983,290.918 151.600,290.641 151.600 C 290.536 151.600,291.384 153.560,292.525 155.955 M316.157 153.033 C 316.291 153.381,316.400 153.741,316.400 153.833 C 316.400 153.925,316.563 154.000,316.763 154.000 C 316.962 154.000,317.031 153.640,316.916 153.200 C 316.801 152.760,316.528 152.400,316.311 152.400 C 316.093 152.400,316.024 152.685,316.157 153.033 M112.808 158.784 C 111.880 160.603,111.843 160.800,112.424 160.800 C 112.657 160.800,112.736 160.620,112.600 160.400 C 112.464 160.180,112.573 160.000,112.843 160.000 C 113.113 160.000,113.222 159.889,113.086 159.752 C 112.950 159.616,113.100 159.243,113.419 158.924 C 113.964 158.378,114.230 157.200,113.808 157.200 C 113.703 157.200,113.253 157.913,112.808 158.784 M141.433 159.057 C 141.052 160.050,141.472 160.186,141.982 159.234 C 142.227 158.775,142.261 158.400,142.057 158.400 C 141.853 158.400,141.572 158.696,141.433 159.057 M266.800 161.750 C 266.800 162.041,268.871 165.600,269.041 165.600 C 269.136 165.600,268.757 164.700,268.200 163.600 C 267.331 161.886,266.800 161.183,266.800 161.750 M137.694 166.200 C 136.545 168.510,135.685 170.400,135.784 170.400 C 135.882 170.400,136.932 168.510,138.117 166.200 C 139.302 163.890,140.162 162.000,140.027 162.000 C 139.893 162.000,138.842 163.890,137.694 166.200 M270.814 169.420 C 270.822 169.629,271.099 170.250,271.431 170.800 L 272.033 171.800 271.772 170.800 C 271.499 169.757,270.789 168.733,270.814 169.420 M104.379 175.642 C 103.044 178.306,102.015 180.548,102.092 180.625 C 102.169 180.702,103.349 178.523,104.714 175.783 C 106.079 173.042,107.108 170.800,107.001 170.800 C 106.894 170.800,105.714 172.979,104.379 175.642 M127.218 186.651 C 125.211 190.529,123.656 193.789,123.761 193.894 C 123.866 194.000,125.584 190.827,127.578 186.843 C 129.573 182.859,131.128 179.600,131.036 179.600 C 130.943 179.600,129.225 182.773,127.218 186.651 M302.000 185.400 C 302.000 185.730,302.180 186.000,302.400 186.000 C 302.620 186.000,302.800 185.730,302.800 185.400 C 302.800 185.070,302.620 184.800,302.400 184.800 C 302.180 184.800,302.000 185.070,302.000 185.400 M99.089 186.004 C 98.370 186.844,92.271 198.800,92.562 198.800 C 92.654 198.800,93.623 197.135,94.716 195.100 C 95.809 193.065,97.461 190.005,98.387 188.300 C 100.126 185.097,100.270 184.625,99.089 186.004 M302.406 188.300 C 302.424 189.177,303.188 189.759,303.194 188.900 C 303.197 188.405,303.020 188.000,302.800 188.000 C 302.580 188.000,302.403 188.135,302.406 188.300 M277.200 190.600 C 277.200 190.930,277.380 191.200,277.600 191.200 C 277.820 191.200,278.000 190.930,278.000 190.600 C 278.000 190.270,277.820 190.000,277.600 190.000 C 277.380 190.000,277.200 190.270,277.200 190.600 M374.000 191.024 C 374.000 191.587,374.163 191.946,374.362 191.823 C 374.562 191.700,374.631 191.239,374.516 190.800 C 374.228 189.699,374.000 189.798,374.000 191.024 M399.701 192.600 C 399.705 193.480,399.787 193.793,399.883 193.295 C 399.979 192.798,399.975 192.078,399.875 191.695 C 399.775 191.313,399.696 191.720,399.701 192.600 M303.002 192.797 C 302.867 193.015,302.941 193.510,303.166 193.897 C 303.517 194.500,303.577 194.444,303.588 193.500 C 303.601 192.350,303.416 192.128,303.002 192.797 M277.600 194.000 C 277.600 194.440,277.780 194.800,278.000 194.800 C 278.220 194.800,278.400 194.440,278.400 194.000 C 278.400 193.560,278.220 193.200,278.000 193.200 C 277.780 193.200,277.600 193.560,277.600 194.000 M374.440 198.100 C 374.418 198.925,374.580 199.600,374.800 199.600 C 375.258 199.600,375.258 199.030,374.800 197.600 C 374.514 196.708,374.475 196.761,374.440 198.100 M352.509 200.000 C 352.509 200.990,352.587 201.395,352.682 200.900 C 352.778 200.405,352.778 199.595,352.682 199.100 C 352.587 198.605,352.509 199.010,352.509 200.000 M278.000 199.800 C 278.000 200.350,278.180 200.800,278.400 200.800 C 278.620 200.800,278.800 200.350,278.800 199.800 C 278.800 199.250,278.620 198.800,278.400 198.800 C 278.180 198.800,278.000 199.250,278.000 199.800 M91.582 200.034 C 91.067 200.996,91.456 201.673,92.016 200.788 C 92.408 200.168,92.529 199.200,92.214 199.200 C 92.112 199.200,91.827 199.575,91.582 200.034 M246.634 200.570 C 247.441 201.722,274.915 229.219,275.087 229.047 C 275.166 228.967,268.671 222.348,260.654 214.338 C 252.636 206.328,246.327 200.132,246.634 200.570 M303.223 202.300 C 303.286 205.304,303.907 206.663,303.954 203.900 C 303.981 202.336,303.832 201.200,303.600 201.200 C 303.380 201.200,303.210 201.695,303.223 202.300 M117.685 205.015 C 116.761 206.877,116.093 208.400,116.198 208.400 C 116.465 208.400,119.685 201.951,119.507 201.774 C 119.428 201.695,118.608 203.153,117.685 205.015 M327.309 204.000 C 327.309 204.990,327.387 205.395,327.482 204.900 C 327.578 204.405,327.578 203.595,327.482 203.100 C 327.387 202.605,327.309 203.010,327.309 204.000 M278.400 206.800 C 278.400 207.460,278.580 208.000,278.800 208.000 C 279.020 208.000,279.200 207.460,279.200 206.800 C 279.200 206.140,279.020 205.600,278.800 205.600 C 278.580 205.600,278.400 206.140,278.400 206.800 M374.832 207.780 C 374.808 208.940,374.918 209.242,375.245 208.915 C 375.561 208.599,375.570 208.140,375.277 207.335 C 374.868 206.213,374.863 206.218,374.832 207.780 M352.501 208.600 C 352.505 209.480,352.587 209.793,352.683 209.295 C 352.779 208.798,352.775 208.078,352.675 207.695 C 352.575 207.313,352.496 207.720,352.501 208.600 M303.497 210.764 C 303.331 211.514,303.286 212.219,303.397 212.331 C 303.814 212.748,304.052 212.034,303.928 210.738 L 303.799 209.400 303.497 210.764 M375.206 212.700 C 375.203 213.195,375.380 213.600,375.600 213.600 C 376.101 213.600,376.101 213.176,375.600 212.400 C 375.286 211.915,375.211 211.972,375.206 212.700 M82.779 217.641 C 81.883 219.424,81.214 220.947,81.293 221.026 C 81.372 221.105,82.192 219.647,83.115 217.785 C 84.039 215.923,84.707 214.400,84.602 214.400 C 84.496 214.400,83.676 215.859,82.779 217.641 M376.092 216.075 C 376.179 216.336,376.464 216.621,376.725 216.708 C 377.018 216.806,377.107 216.623,376.957 216.233 C 376.678 215.506,375.852 215.355,376.092 216.075 M299.800 219.282 L 298.200 220.951 299.894 219.647 C 301.655 218.291,302.279 217.595,301.724 217.607 C 301.546 217.610,300.680 218.365,299.800 219.282 M377.200 217.766 C 377.200 217.858,377.965 218.521,378.900 219.239 L 380.600 220.546 379.222 219.073 C 378.008 217.776,377.200 217.254,377.200 217.766 M396.175 219.300 L 395.000 220.600 396.300 219.425 C 397.015 218.779,397.600 218.194,397.600 218.125 C 397.600 217.816,397.270 218.088,396.175 219.300 M348.800 219.600 C 348.250 220.030,347.997 220.386,348.238 220.391 C 348.479 220.396,349.002 220.040,349.400 219.600 C 350.312 218.592,350.088 218.592,348.800 219.600 M107.552 224.900 C 106.202 227.595,104.300 231.208,103.325 232.928 C 102.350 234.649,101.626 236.269,101.716 236.528 C 101.807 236.788,103.798 233.175,106.142 228.500 C 108.486 223.825,110.314 220.000,110.205 220.000 C 110.096 220.000,108.902 222.205,107.552 224.900 M332.000 221.159 C 332.550 221.599,333.330 222.253,333.733 222.613 C 334.137 222.972,334.572 223.162,334.700 223.033 C 334.991 222.743,334.984 222.737,332.800 221.433 C 331.810 220.842,331.450 220.719,332.000 221.159 M343.376 222.987 C 342.949 223.310,342.810 223.580,343.067 223.587 C 343.827 223.608,344.800 223.142,344.800 222.757 C 344.800 222.233,344.258 222.321,343.376 222.987 M386.400 222.800 C 386.400 223.020,387.120 223.200,388.000 223.200 C 388.880 223.200,389.600 223.020,389.600 222.800 C 389.600 222.580,388.880 222.400,388.000 222.400 C 387.120 222.400,386.400 222.580,386.400 222.800 M341.000 223.600 C 340.864 223.820,341.123 224.000,341.576 224.000 C 342.029 224.000,342.400 223.820,342.400 223.600 C 342.400 223.380,342.141 223.200,341.824 223.200 C 341.507 223.200,341.136 223.380,341.000 223.600 M73.660 235.095 C 70.405 241.576,69.859 243.185,72.743 237.800 C 73.803 235.820,75.161 233.335,75.761 232.277 C 76.361 231.219,76.777 230.139,76.686 229.877 C 76.595 229.615,75.233 231.963,73.660 235.095 M280.799 235.500 C 282.209 237.095,283.506 238.400,283.682 238.400 C 284.377 238.400,283.914 237.689,282.100 235.971 C 278.672 232.725,278.192 232.551,280.799 235.500 M285.433 240.200 C 286.279 241.622,287.167 242.567,287.419 242.314 C 287.519 242.215,286.952 241.428,286.159 240.567 C 284.927 239.226,284.822 239.173,285.433 240.200 M96.286 246.617 C 95.031 249.138,94.092 251.200,94.199 251.200 C 94.464 251.200,98.885 242.352,98.708 242.175 C 98.631 242.097,97.540 244.096,96.286 246.617 M288.681 244.187 C 289.077 244.731,289.566 245.181,289.770 245.187 C 289.973 245.194,289.717 244.750,289.200 244.200 C 288.001 242.923,287.757 242.918,288.681 244.187 M65.400 251.600 C 63.528 255.340,62.086 258.400,62.196 258.400 C 62.306 258.400,63.928 255.340,65.800 251.600 C 67.672 247.860,69.114 244.800,69.004 244.800 C 68.894 244.800,67.272 247.860,65.400 251.600 M254.466 251.686 C 252.413 252.775,250.800 253.733,250.882 253.816 C 251.058 253.991,258.800 250.045,258.800 249.780 C 258.800 249.443,258.200 249.707,254.466 251.686 M245.462 256.447 C 244.616 256.893,244.015 257.348,244.125 257.458 C 244.375 257.708,246.660 256.550,246.998 256.003 C 247.323 255.477,247.271 255.492,245.462 256.447 M60.832 260.339 C 60.179 261.560,60.314 261.900,61.041 260.863 C 61.393 260.360,61.588 259.854,61.473 259.740 C 61.359 259.625,61.070 259.895,60.832 260.339 M237.500 260.465 C 236.895 260.686,236.400 261.030,236.400 261.230 C 236.400 261.429,234.600 262.496,232.400 263.600 C 230.200 264.704,228.400 265.706,228.400 265.827 C 228.400 265.947,230.740 264.842,233.600 263.370 C 236.460 261.898,238.800 260.537,238.800 260.347 C 238.800 260.156,238.755 260.014,238.700 260.032 C 238.645 260.049,238.105 260.244,237.500 260.465 M287.500 262.432 C 287.115 262.656,286.800 263.005,286.800 263.207 C 286.800 263.750,287.902 263.231,288.157 262.569 C 288.412 261.903,288.410 261.902,287.500 262.432 M87.493 263.708 C 86.848 264.503,86.556 265.600,86.990 265.600 C 87.248 265.600,88.494 263.160,88.323 262.990 C 88.248 262.915,87.875 263.238,87.493 263.708 M284.291 264.400 C 283.731 264.840,283.077 265.200,282.837 265.200 C 282.597 265.200,282.400 265.391,282.400 265.624 C 282.400 265.857,282.220 265.936,282.000 265.800 C 281.780 265.664,281.600 265.754,281.600 266.000 C 281.600 266.246,281.420 266.336,281.200 266.200 C 280.980 266.064,280.800 266.143,280.800 266.376 C 280.800 266.609,280.906 266.800,281.035 266.800 C 281.380 266.800,286.400 263.960,286.400 263.766 C 286.400 263.325,285.198 263.686,284.291 264.400 M222.300 268.827 C 221.475 269.263,220.800 269.708,220.800 269.818 C 220.800 269.927,221.520 269.649,222.400 269.200 C 223.280 268.751,224.000 268.297,224.000 268.192 C 224.000 267.930,223.997 267.931,222.300 268.827 M83.897 270.900 C 81.061 275.824,79.197 279.576,79.680 279.391 C 79.979 279.276,81.343 276.936,82.710 274.191 C 85.199 269.193,85.735 267.709,83.897 270.900 M215.459 272.246 C 213.952 273.019,212.793 273.726,212.883 273.816 C 212.973 273.907,214.386 273.270,216.024 272.401 C 217.661 271.532,218.820 270.825,218.600 270.830 C 218.380 270.835,216.967 271.472,215.459 272.246 M269.100 272.826 C 267.835 273.479,266.800 274.103,266.800 274.212 C 266.800 274.322,267.880 273.866,269.200 273.200 C 270.520 272.534,271.600 271.901,271.600 271.794 C 271.600 271.528,271.674 271.497,269.100 272.826 M51.625 277.950 C 49.651 281.876,49.517 282.689,51.386 279.400 C 53.114 276.360,53.671 275.138,53.436 274.903 C 53.334 274.801,52.519 276.172,51.625 277.950 M207.859 276.246 C 206.352 277.019,205.218 277.751,205.339 277.872 C 205.560 278.093,210.800 275.318,210.800 274.980 C 210.800 274.729,210.897 274.687,207.859 276.246 M262.000 276.600 C 260.570 277.349,259.540 277.970,259.711 277.981 C 260.137 278.007,264.800 275.637,264.800 275.394 C 264.800 275.125,264.894 275.085,262.000 276.600 M197.957 281.577 C 197.430 282.015,197.180 282.374,197.400 282.374 C 197.973 282.375,199.383 281.249,199.127 280.994 C 199.010 280.876,198.483 281.139,197.957 281.577 M74.886 288.218 C 73.301 291.398,72.092 294.000,72.199 294.000 C 72.464 294.000,78.085 282.752,77.909 282.575 C 77.832 282.499,76.472 285.038,74.886 288.218 M192.700 284.424 C 190.555 285.515,188.800 286.498,188.800 286.608 C 188.800 286.717,190.600 285.904,192.800 284.800 C 195.000 283.696,196.800 282.704,196.800 282.596 C 196.800 282.325,197.025 282.225,192.700 284.424 M245.800 284.872 C 244.920 285.332,244.140 285.865,244.066 286.057 C 243.992 286.248,243.767 286.303,243.566 286.179 C 243.365 286.055,243.200 286.116,243.200 286.316 C 243.200 286.515,242.478 287.004,241.596 287.402 C 240.714 287.800,240.065 288.198,240.154 288.287 C 240.346 288.479,248.400 284.483,248.400 284.196 C 248.400 283.790,247.346 284.063,245.800 284.872 M237.612 289.184 C 237.288 289.389,237.121 289.654,237.241 289.774 C 237.360 289.894,237.805 289.729,238.229 289.409 C 239.073 288.771,238.560 288.585,237.612 289.184 M43.434 294.300 C 41.707 297.708,41.250 298.209,26.039 313.376 C 17.448 321.943,10.511 329.044,10.624 329.158 C 10.737 329.271,17.844 322.301,26.417 313.670 C 41.687 298.296,42.040 297.904,43.806 294.388 C 44.797 292.415,45.518 290.800,45.408 290.800 C 45.298 290.800,44.410 292.375,43.434 294.300 M175.059 293.445 C 173.111 294.438,171.598 295.331,171.696 295.430 C 171.795 295.528,173.569 294.711,175.638 293.612 C 177.707 292.514,179.220 291.621,179.000 291.628 C 178.780 291.635,177.006 292.453,175.059 293.445 M224.658 296.045 C 222.050 297.367,219.985 298.518,220.069 298.603 C 220.249 298.783,229.600 294.054,229.600 293.783 C 229.600 293.527,229.875 293.401,224.658 296.045 M165.061 298.646 C 163.994 299.201,163.208 299.741,163.313 299.846 C 163.577 300.110,167.200 298.315,167.200 297.920 C 167.200 297.511,167.323 297.469,165.061 298.646 M209.901 303.710 C 208.197 304.639,206.802 305.538,206.801 305.706 C 206.800 306.130,211.514 303.711,212.525 302.769 C 213.675 301.698,213.422 301.789,209.901 303.710 M156.300 303.426 C 155.255 303.970,154.400 304.505,154.400 304.614 C 154.400 304.793,158.360 302.923,158.767 302.552 C 159.262 302.101,157.961 302.562,156.300 303.426 M67.010 303.970 C 66.865 304.426,66.568 304.800,66.349 304.800 C 66.131 304.800,66.064 304.980,66.200 305.200 C 66.336 305.420,66.269 305.600,66.051 305.600 C 63.784 305.600,65.278 307.368,79.669 321.721 L 94.200 336.214 96.600 334.918 C 99.461 333.373,99.249 333.156,96.325 334.638 L 94.277 335.676 80.052 321.451 L 65.828 307.226 66.732 305.365 C 67.230 304.341,67.555 303.421,67.455 303.321 C 67.355 303.222,67.154 303.513,67.010 303.970 M149.500 307.025 C 147.575 308.006,146.000 308.898,146.000 309.008 C 146.000 309.118,147.620 308.394,149.600 307.400 C 151.580 306.406,153.200 305.504,153.200 305.396 C 153.200 305.126,153.387 305.043,149.500 307.025 M202.900 307.288 C 202.405 307.527,202.000 307.853,202.000 308.013 C 202.000 308.172,201.454 308.529,200.787 308.805 C 200.120 309.082,199.649 309.382,199.740 309.473 C 199.985 309.718,204.400 307.486,204.400 307.117 C 204.400 306.707,204.013 306.752,202.900 307.288 M133.672 315.083 C 130.961 316.509,128.823 317.756,128.920 317.854 C 129.092 318.026,137.004 313.998,138.589 312.931 C 140.345 311.749,138.330 312.631,133.672 315.083 M183.458 317.645 C 181.290 318.748,179.587 319.720,179.673 319.806 C 179.759 319.892,181.712 318.987,184.014 317.795 C 186.317 316.602,188.020 315.630,187.800 315.634 C 187.580 315.638,185.626 316.543,183.458 317.645 M121.029 321.829 C 120.171 322.686,120.239 322.914,121.200 322.400 C 121.640 322.165,122.000 321.798,122.000 321.586 C 122.000 321.042,121.753 321.104,121.029 321.829 M115.100 325.025 C 113.175 326.006,111.600 326.898,111.600 327.008 C 111.600 327.187,118.760 323.729,119.167 323.354 C 119.750 322.815,118.121 323.485,115.100 325.025 M169.800 324.748 C 164.780 327.683,164.286 328.244,168.600 326.109 C 170.250 325.293,171.600 324.484,171.600 324.312 C 171.600 323.852,171.142 323.963,169.800 324.748 M57.041 334.659 C 61.464 339.027,67.201 344.797,69.789 347.482 L 74.496 352.364 67.188 359.947 C 63.168 364.119,59.065 368.212,58.071 369.043 L 56.261 370.556 48.631 362.728 C 44.434 358.422,38.570 352.589,35.600 349.765 C 32.630 346.941,36.049 350.518,43.198 357.715 C 50.346 364.912,56.378 370.800,56.601 370.800 C 57.090 370.800,74.800 353.139,74.800 352.651 C 74.800 352.028,63.263 340.158,56.074 333.384 L 49.000 326.719 57.041 334.659 M162.676 328.581 C 162.357 328.900,161.984 329.050,161.848 328.914 C 161.711 328.778,161.600 328.887,161.600 329.157 C 161.600 329.427,161.465 329.565,161.300 329.466 C 161.135 329.366,160.768 329.535,160.484 329.842 C 160.201 330.149,160.072 330.400,160.198 330.400 C 160.587 330.400,164.400 328.398,164.400 328.193 C 164.400 327.770,163.223 328.035,162.676 328.581 M104.700 330.426 C 103.435 331.079,102.400 331.703,102.400 331.812 C 102.400 331.922,103.480 331.466,104.800 330.800 C 106.120 330.134,107.200 329.501,107.200 329.394 C 107.200 329.128,107.274 329.097,104.700 330.426 M158.246 331.126 C 158.135 331.305,162.388 335.760,167.696 341.026 L 177.347 350.600 169.400 342.276 C 165.030 337.698,160.766 333.407,159.925 332.741 C 159.084 332.075,158.498 331.366,158.622 331.165 C 158.746 330.964,158.757 330.800,158.647 330.800 C 158.537 330.800,158.357 330.946,158.246 331.126 M6.209 333.591 C 5.131 334.686,4.340 335.673,4.452 335.786 C 4.565 335.898,5.509 335.002,6.551 333.795 C 8.908 331.065,8.775 330.986,6.209 333.591 M1.029 339.943 C 0.125 341.693,0.256 342.041,1.223 340.455 C 1.674 339.715,1.957 339.023,1.851 338.918 C 1.745 338.812,1.376 339.273,1.029 339.943 M133.200 344.400 C 133.200 344.620,133.464 344.800,133.786 344.800 C 134.108 344.800,135.014 345.364,135.800 346.053 C 136.585 346.743,137.356 347.177,137.513 347.019 C 137.774 346.757,137.462 346.453,135.019 344.594 C 134.122 343.912,133.200 343.814,133.200 344.400 M130.800 345.624 C 130.800 345.857,130.575 345.918,130.300 345.759 C 130.006 345.591,129.942 345.622,130.144 345.836 C 137.936 354.097,142.215 358.427,150.153 366.089 L 159.800 375.400 151.462 366.800 C 146.876 362.070,140.359 355.537,136.981 352.283 C 132.939 348.389,130.915 346.167,131.062 345.783 C 131.185 345.462,131.176 345.200,131.043 345.200 C 130.909 345.200,130.800 345.391,130.800 345.624 M0.011 347.800 C 0.005 348.543,2.309 352.189,3.804 353.800 L 5.288 355.400 3.793 353.470 C 2.970 352.409,1.784 350.609,1.156 349.470 C 0.528 348.332,0.013 347.580,0.011 347.800 M143.994 353.312 C 146.741 356.111,149.171 358.398,149.394 358.395 C 149.617 358.392,148.810 357.450,147.600 356.301 C 140.616 349.669,139.551 348.786,143.994 353.312 M181.438 355.300 C 183.462 357.483,184.000 357.907,184.000 357.318 C 184.000 356.872,180.284 353.200,179.832 353.200 C 179.644 353.200,180.367 354.145,181.438 355.300 M7.400 358.000 C 8.483 359.100,9.447 360.000,9.541 360.000 C 9.880 360.000,6.191 356.080,5.815 356.041 C 5.603 356.018,6.317 356.900,7.400 358.000 M105.100 358.629 C 104.495 358.957,104.000 359.310,104.000 359.413 C 104.000 359.799,104.632 359.557,105.600 358.800 C 106.789 357.870,106.611 357.809,105.100 358.629 M184.813 358.609 C 184.835 359.243,186.396 360.937,186.689 360.645 C 186.837 360.497,186.472 359.890,185.879 359.297 C 185.285 358.704,184.806 358.394,184.813 358.609 M101.074 361.971 C 99.938 363.055,99.107 364.040,99.228 364.161 C 99.348 364.282,100.420 363.395,101.610 362.190 C 104.301 359.465,103.882 359.293,101.074 361.971 M187.200 361.502 C 187.200 361.722,187.470 362.126,187.800 362.400 C 188.135 362.678,188.400 362.721,188.400 362.498 C 188.400 362.278,188.130 361.874,187.800 361.600 C 187.465 361.322,187.200 361.279,187.200 361.502 M13.600 364.613 C 13.600 364.968,35.722 386.812,35.900 386.633 C 36.082 386.451,14.190 364.400,13.826 364.400 C 13.702 364.400,13.600 364.496,13.600 364.613 M127.177 378.723 C 134.717 386.271,140.980 392.354,141.093 392.240 C 141.281 392.053,122.189 373.120,116.033 367.389 C 114.622 366.075,119.636 371.175,127.177 378.723 M156.803 366.300 C 156.805 366.465,158.380 368.028,160.303 369.774 C 163.608 372.774,163.287 372.217,159.220 367.900 C 157.528 366.104,156.796 365.619,156.803 366.300 M83.800 378.959 C 76.980 385.639,71.495 391.206,71.611 391.330 C 71.727 391.454,77.396 385.986,84.209 379.178 C 91.022 372.370,96.507 366.803,96.398 366.807 C 96.289 366.810,90.620 372.279,83.800 378.959 M165.210 375.012 C 165.630 375.518,165.569 375.781,164.859 376.538 C 163.869 377.591,163.697 378.349,164.622 377.582 C 165.951 376.479,166.269 374.400,165.108 374.400 C 164.878 374.400,164.921 374.664,165.210 375.012 M160.800 376.373 C 160.800 376.578,161.160 376.860,161.600 377.000 C 162.040 377.140,162.400 377.422,162.400 377.627 C 162.400 377.832,162.715 377.999,163.100 377.998 C 163.632 377.997,163.512 377.760,162.600 377.012 C 161.315 375.959,160.800 375.776,160.800 376.373 M189.841 385.053 C 189.424 386.065,188.467 387.700,187.714 388.686 C 186.961 389.672,186.430 390.564,186.534 390.667 C 186.975 391.109,190.980 384.332,190.723 383.577 C 190.656 383.377,190.259 384.042,189.841 385.053 M43.178 393.688 C 44.816 395.387,46.241 396.692,46.345 396.588 C 46.449 396.485,46.453 396.355,46.356 396.300 C 46.258 396.245,44.833 394.940,43.189 393.400 L 40.200 390.600 43.178 393.688 M181.979 395.072 C 180.121 396.969,179.140 398.147,179.800 397.691 C 181.371 396.605,185.811 392.078,185.556 391.823 C 185.447 391.714,183.837 393.176,181.979 395.072 M66.400 396.000 C 65.190 397.086,64.387 397.980,64.615 397.987 C 64.843 397.994,65.917 397.100,67.000 396.000 C 69.505 393.456,69.234 393.456,66.400 396.000 M144.800 395.800 C 145.546 396.570,146.247 397.200,146.357 397.200 C 146.467 397.200,145.946 396.570,145.200 395.800 C 144.454 395.030,143.753 394.400,143.643 394.400 C 143.533 394.400,144.054 395.030,144.800 395.800 M48.367 398.545 C 48.900 399.201,50.400 400.193,50.400 399.889 C 50.400 399.813,49.815 399.322,49.100 398.799 C 48.296 398.210,48.016 398.113,48.367 398.545 M61.637 399.830 C 60.667 400.363,60.127 400.799,60.437 400.799 C 61.042 400.797,63.600 399.347,63.600 399.006 C 63.600 398.739,63.680 398.705,61.637 399.830 M152.600 401.810 C 153.480 402.352,154.380 402.795,154.600 402.793 C 154.820 402.792,154.217 402.343,153.259 401.795 C 151.014 400.511,150.510 400.523,152.600 401.810 M173.600 401.600 C 172.830 402.022,172.344 402.374,172.520 402.383 C 172.944 402.405,175.200 401.232,175.200 400.990 C 175.200 400.728,175.177 400.737,173.600 401.600 M161.300 403.891 C 162.125 403.978,163.475 403.978,164.300 403.891 C 165.125 403.805,164.450 403.734,162.800 403.734 C 161.150 403.734,160.475 403.805,161.300 403.891 " stroke="none" fill="#d0d0d0" fill-rule="evenodd"></path><path id="path2" d="M200.905 0.687 C 201.514 0.779,202.414 0.777,202.905 0.682 C 203.397 0.587,202.900 0.511,201.800 0.514 C 200.700 0.517,200.297 0.595,200.905 0.687 M181.375 4.100 L 180.200 5.400 181.500 4.225 C 182.215 3.579,182.800 2.994,182.800 2.925 C 182.800 2.616,182.470 2.888,181.375 4.100 M242.033 5.744 C 242.125 5.823,242.740 6.008,243.400 6.156 C 244.276 6.352,244.438 6.315,244.000 6.018 C 243.460 5.653,241.632 5.398,242.033 5.744 M245.031 6.344 C 245.234 6.521,247.561 7.225,250.202 7.908 C 252.843 8.591,255.363 9.265,255.802 9.405 C 256.454 9.614,256.485 9.585,255.970 9.249 C 255.179 8.734,244.527 5.904,245.031 6.344 M180.400 20.125 C 180.400 20.194,180.985 20.779,181.700 21.425 L 183.000 22.600 181.825 21.300 C 180.730 20.088,180.400 19.816,180.400 20.125 M195.400 24.818 C 198.396 25.285,201.135 25.275,200.400 24.800 C 200.070 24.587,198.360 24.434,196.600 24.460 C 193.552 24.505,193.495 24.522,195.400 24.818 M206.000 25.200 C 206.788 25.709,207.715 25.709,207.400 25.200 C 207.264 24.980,206.758 24.803,206.276 24.806 C 205.564 24.811,205.512 24.885,206.000 25.200 M214.800 26.000 C 215.130 26.213,215.760 26.388,216.200 26.388 C 216.862 26.388,216.897 26.321,216.400 26.000 C 216.070 25.787,215.440 25.612,215.000 25.612 C 214.338 25.612,214.303 25.679,214.800 26.000 M239.600 30.358 C 239.930 30.561,240.920 30.832,241.800 30.961 C 242.933 31.126,243.108 31.097,242.400 30.862 C 240.564 30.252,238.957 29.963,239.600 30.358 M243.648 31.381 C 243.747 31.481,245.861 32.178,248.344 32.931 C 250.828 33.684,252.712 34.155,252.530 33.979 C 252.246 33.702,244.278 31.200,243.681 31.200 C 243.563 31.200,243.548 31.281,243.648 31.381 M191.400 48.415 C 187.799 48.577,188.898 48.638,195.800 48.661 C 200.860 48.677,204.730 48.635,204.400 48.567 C 203.083 48.295,195.931 48.212,191.400 48.415 M185.400 48.685 C 184.175 48.980,183.798 49.528,184.976 49.303 C 185.546 49.194,186.110 48.946,186.230 48.752 C 186.349 48.559,186.392 48.421,186.324 48.446 C 186.256 48.472,185.840 48.579,185.400 48.685 M207.000 48.804 C 207.767 49.130,211.111 49.353,210.767 49.056 C 210.675 48.977,209.610 48.811,208.400 48.688 C 207.031 48.549,206.502 48.592,207.000 48.804 M211.600 49.200 C 211.930 49.413,212.650 49.573,213.200 49.554 L 214.200 49.520 213.200 49.200 C 211.658 48.706,210.836 48.706,211.600 49.200 M215.400 49.600 C 215.536 49.820,216.042 49.987,216.524 49.972 C 217.369 49.945,217.371 49.931,216.600 49.600 C 215.499 49.127,215.108 49.127,215.400 49.600 M328.800 49.725 C 328.800 49.794,329.385 50.379,330.100 51.025 L 331.400 52.200 330.225 50.900 C 329.130 49.688,328.800 49.416,328.800 49.725 M291.800 52.607 C 292.240 52.966,292.960 53.435,293.400 53.651 L 294.200 54.044 293.400 53.393 C 292.960 53.034,292.240 52.565,291.800 52.349 L 291.000 51.956 291.800 52.607 M334.600 55.200 C 335.683 56.300,336.660 57.200,336.770 57.200 C 336.880 57.200,336.083 56.300,335.000 55.200 C 333.917 54.100,332.940 53.200,332.830 53.200 C 332.720 53.200,333.517 54.100,334.600 55.200 M343.800 64.400 C 344.883 65.500,345.860 66.400,345.970 66.400 C 346.080 66.400,345.283 65.500,344.200 64.400 C 343.117 63.300,342.140 62.400,342.030 62.400 C 341.920 62.400,342.717 63.300,343.800 64.400 M268.800 66.584 C 268.800 66.694,269.520 67.151,270.400 67.600 C 271.280 68.049,272.000 68.326,272.000 68.216 C 272.000 68.106,271.280 67.649,270.400 67.200 C 269.520 66.751,268.800 66.474,268.800 66.584 M348.000 68.925 C 348.000 68.994,348.585 69.579,349.300 70.225 L 350.600 71.400 349.425 70.100 C 348.330 68.888,348.000 68.616,348.000 68.925 M314.422 69.500 C 314.434 69.665,315.019 70.238,315.722 70.774 L 317.000 71.749 315.825 70.474 C 314.603 69.149,314.385 68.997,314.422 69.500 M185.200 71.964 C 185.530 72.145,186.610 72.400,187.600 72.532 C 188.679 72.675,189.080 72.640,188.600 72.445 C 187.471 71.986,184.464 71.560,185.200 71.964 M192.100 72.696 C 193.365 72.775,195.435 72.775,196.700 72.696 C 197.965 72.616,196.930 72.551,194.400 72.551 C 191.870 72.551,190.835 72.616,192.100 72.696 M204.305 73.083 C 204.802 73.179,205.522 73.175,205.905 73.075 C 206.287 72.975,205.880 72.896,205.000 72.901 C 204.120 72.905,203.807 72.987,204.305 73.083 M214.500 74.276 C 214.885 74.376,215.515 74.376,215.900 74.276 C 216.285 74.175,215.970 74.093,215.200 74.093 C 214.430 74.093,214.115 74.175,214.500 74.276 M329.234 84.247 C 329.765 84.933,330.280 85.423,330.379 85.335 C 330.477 85.247,330.043 84.686,329.413 84.088 L 328.269 83.000 329.234 84.247 M299.688 88.213 C 300.286 88.843,300.847 89.277,300.935 89.179 C 301.023 89.080,300.533 88.565,299.847 88.034 L 298.600 87.069 299.688 88.213 M306.200 94.400 C 307.059 95.280,307.852 96.000,307.962 96.000 C 308.072 96.000,307.459 95.280,306.600 94.400 C 305.741 93.520,304.948 92.800,304.838 92.800 C 304.728 92.800,305.341 93.520,306.200 94.400 M201.400 96.800 C 201.536 97.020,202.222 97.197,202.924 97.194 C 203.895 97.189,204.057 97.095,203.600 96.800 C 202.807 96.287,201.083 96.287,201.400 96.800 M207.200 97.200 C 207.200 97.420,207.470 97.600,207.800 97.600 C 208.130 97.600,208.400 97.420,208.400 97.200 C 208.400 96.980,208.130 96.800,207.800 96.800 C 207.470 96.800,207.200 96.980,207.200 97.200 M311.200 99.455 C 311.200 99.668,311.875 100.463,312.700 101.222 L 314.200 102.600 312.800 101.004 C 312.030 100.127,311.355 99.332,311.300 99.238 C 311.245 99.144,311.200 99.241,311.200 99.455 M284.783 107.700 C 285.764 108.745,286.619 109.600,286.683 109.600 C 286.984 109.600,286.666 109.241,284.900 107.583 L 283.000 105.800 284.783 107.700 M347.149 107.800 C 347.365 108.240,347.834 108.960,348.193 109.400 L 348.844 110.200 348.451 109.400 C 348.235 108.960,347.766 108.240,347.407 107.800 L 346.756 107.000 347.149 107.800 M148.000 108.000 C 149.870 108.151,151.760 108.395,152.200 108.543 C 152.640 108.691,152.460 108.547,151.800 108.224 C 151.035 107.849,149.513 107.653,147.600 107.681 L 144.600 107.727 148.000 108.000 M160.388 115.733 C 161.812 117.200,163.050 118.400,163.140 118.400 C 163.434 118.400,160.231 115.020,159.000 114.031 C 158.340 113.500,158.965 114.266,160.388 115.733 M197.600 121.200 C 197.600 121.708,198.814 121.708,199.600 121.200 C 200.055 120.906,199.886 120.811,198.900 120.806 C 198.185 120.803,197.600 120.980,197.600 121.200 M176.600 131.600 C 180.335 135.340,183.481 138.400,183.591 138.400 C 183.701 138.400,180.735 135.340,177.000 131.600 C 173.265 127.860,170.119 124.800,170.009 124.800 C 169.899 124.800,172.865 127.860,176.600 131.600 M272.200 128.400 C 274.171 130.380,275.873 132.000,275.983 132.000 C 276.093 132.000,274.571 130.380,272.600 128.400 C 270.629 126.420,268.927 124.800,268.817 124.800 C 268.707 124.800,270.229 126.420,272.200 128.400 M128.980 128.840 C 128.411 129.962,128.013 130.947,128.095 131.029 C 128.177 131.111,128.727 130.193,129.318 128.989 C 129.908 127.785,130.306 126.800,130.202 126.800 C 130.098 126.800,129.548 127.718,128.980 128.840 M234.800 130.996 C 234.800 131.270,237.249 132.484,237.432 132.301 C 237.519 132.214,236.962 131.844,236.195 131.478 C 235.428 131.112,234.800 130.895,234.800 130.996 M124.200 138.000 C 123.643 139.100,123.277 140.000,123.387 140.000 C 123.497 140.000,124.043 139.100,124.600 138.000 C 125.157 136.900,125.523 136.000,125.413 136.000 C 125.303 136.000,124.757 136.900,124.200 138.000 M152.430 141.832 C 152.964 142.400,153.355 142.940,153.300 143.032 C 153.245 143.125,153.335 143.208,153.500 143.218 C 153.665 143.229,154.430 143.812,155.200 144.514 C 155.970 145.217,155.526 144.668,154.213 143.296 C 152.899 141.923,151.743 140.800,151.643 140.800 C 151.543 140.800,151.897 141.265,152.430 141.832 M390.408 142.900 C 390.448 143.429,392.343 148.885,392.367 148.542 C 392.411 147.930,390.818 142.800,390.584 142.800 C 390.483 142.800,390.403 142.845,390.408 142.900 M365.629 145.429 C 365.588 146.033,366.857 149.676,367.044 149.490 C 367.128 149.405,366.851 148.360,366.428 147.168 C 366.005 145.976,365.645 145.193,365.629 145.429 M392.650 150.400 C 392.790 151.170,393.061 152.160,393.254 152.600 C 393.494 153.149,393.524 152.961,393.350 152.000 C 393.210 151.230,392.939 150.240,392.746 149.800 C 392.506 149.251,392.476 149.439,392.650 150.400 M367.444 151.200 C 367.580 151.970,367.854 152.870,368.051 153.200 C 368.477 153.910,368.068 151.837,367.539 150.600 C 367.308 150.060,367.277 150.256,367.444 151.200 M223.800 178.400 C 232.818 187.420,240.286 194.800,240.396 194.800 C 240.506 194.800,233.218 187.420,224.200 178.400 C 215.182 169.380,207.714 162.000,207.604 162.000 C 207.494 162.000,214.782 169.380,223.800 178.400 M269.200 164.947 C 269.200 165.380,271.188 169.200,271.413 169.200 C 271.523 169.200,271.139 168.255,270.559 167.100 C 269.443 164.879,269.200 164.494,269.200 164.947 M108.400 168.800 C 107.734 170.120,107.278 171.200,107.388 171.200 C 107.498 171.200,108.134 170.120,108.800 168.800 C 109.466 167.480,109.922 166.400,109.812 166.400 C 109.702 166.400,109.066 167.480,108.400 168.800 M220.553 209.453 C 248.619 237.592,260.015 249.265,259.794 249.653 C 259.540 250.099,259.584 250.106,260.031 249.690 C 260.486 249.267,253.802 242.420,220.790 209.490 L 181.001 169.800 220.553 209.453 M132.200 176.000 C 131.859 176.660,131.669 177.200,131.779 177.200 C 131.889 177.200,132.259 176.660,132.600 176.000 C 132.941 175.340,133.131 174.800,133.021 174.800 C 132.911 174.800,132.541 175.340,132.200 176.000 M128.865 182.617 C 128.195 184.088,128.323 184.402,129.047 183.065 C 129.386 182.440,129.588 181.854,129.496 181.763 C 129.405 181.671,129.121 182.056,128.865 182.617 M373.606 183.476 C 373.603 183.958,373.780 184.464,374.000 184.600 C 374.509 184.915,374.509 183.988,374.000 183.200 C 373.685 182.712,373.611 182.764,373.606 183.476 M350.668 185.400 C 350.794 186.720,351.048 188.070,351.231 188.400 C 351.593 189.049,351.327 186.740,350.772 184.400 C 350.533 183.397,350.504 183.680,350.668 185.400 M374.006 187.676 C 374.018 188.681,374.787 189.508,374.794 188.524 C 374.797 188.042,374.620 187.536,374.400 187.400 C 374.180 187.264,374.003 187.388,374.006 187.676 M351.492 192.400 C 351.612 194.270,351.775 195.875,351.855 195.967 C 352.135 196.288,351.950 192.184,351.614 190.600 C 351.377 189.483,351.340 190.027,351.492 192.400 M302.400 190.776 C 302.400 191.229,302.580 191.600,302.800 191.600 C 303.020 191.600,303.200 191.341,303.200 191.024 C 303.200 190.707,303.020 190.336,302.800 190.200 C 302.580 190.064,302.400 190.323,302.400 190.776 M326.668 191.400 C 326.971 193.377,327.202 193.714,327.194 192.167 C 327.191 191.525,327.016 190.730,326.805 190.400 C 326.545 189.991,326.501 190.310,326.668 191.400 M374.428 193.276 C 374.482 195.048,375.140 195.975,375.172 194.324 C 375.187 193.512,375.020 192.736,374.800 192.600 C 374.575 192.461,374.412 192.757,374.428 193.276 M278.212 195.717 C 278.041 196.112,278.013 196.547,278.151 196.684 C 278.557 197.090,278.884 196.520,278.697 195.731 C 278.532 195.033,278.510 195.032,278.212 195.717 M327.301 196.600 C 327.305 197.480,327.387 197.793,327.483 197.295 C 327.579 196.798,327.575 196.078,327.475 195.695 C 327.375 195.313,327.296 195.720,327.301 196.600 M302.828 197.076 C 302.813 197.998,302.980 198.864,303.200 199.000 C 303.686 199.300,303.686 197.331,303.200 196.200 C 302.933 195.578,302.850 195.773,302.828 197.076 M399.724 198.600 C 399.726 199.920,399.801 200.412,399.890 199.693 C 399.979 198.974,399.977 197.894,399.886 197.293 C 399.795 196.692,399.722 197.280,399.724 198.600 M327.489 201.600 C 327.611 203.250,327.776 204.675,327.856 204.767 C 328.142 205.097,327.913 200.577,327.594 199.600 C 327.401 199.008,327.358 199.824,327.489 201.600 M352.159 204.400 C 352.159 207.590,352.221 208.895,352.297 207.300 C 352.373 205.705,352.373 203.095,352.297 201.500 C 352.221 199.905,352.159 201.210,352.159 204.400 M374.828 202.276 C 374.879 204.305,375.540 205.236,375.572 203.324 C 375.587 202.402,375.420 201.536,375.200 201.400 C 374.968 201.256,374.812 201.624,374.828 202.276 M251.400 206.000 C 253.592 208.200,255.475 210.000,255.585 210.000 C 255.695 210.000,253.992 208.200,251.800 206.000 C 249.608 203.800,247.725 202.000,247.615 202.000 C 247.505 202.000,249.208 203.800,251.400 206.000 M278.667 202.267 C 278.252 202.682,278.353 204.000,278.800 204.000 C 279.020 204.000,279.200 203.550,279.200 203.000 C 279.200 201.953,279.108 201.826,278.667 202.267 M327.885 208.800 C 328.007 210.230,328.172 211.475,328.253 211.567 C 328.520 211.870,328.311 208.622,327.985 207.400 C 327.782 206.644,327.746 207.162,327.885 208.800 M87.400 209.600 C 86.624 211.140,86.080 212.400,86.190 212.400 C 86.300 212.400,87.024 211.140,87.800 209.600 C 88.576 208.060,89.120 206.800,89.010 206.800 C 88.900 206.800,88.176 208.060,87.400 209.600 M375.200 210.553 C 375.200 210.883,375.380 211.264,375.600 211.400 C 375.820 211.536,376.000 211.377,376.000 211.047 C 376.000 210.717,375.820 210.336,375.600 210.200 C 375.380 210.064,375.200 210.223,375.200 210.553 M112.400 214.400 C 111.734 215.720,111.278 216.800,111.388 216.800 C 111.498 216.800,112.134 215.720,112.800 214.400 C 113.466 213.080,113.922 212.000,113.812 212.000 C 113.702 212.000,113.066 213.080,112.400 214.400 M328.272 213.400 C 328.402 214.280,328.656 215.270,328.837 215.600 C 329.025 215.944,329.064 215.518,328.928 214.600 C 328.798 213.720,328.544 212.730,328.363 212.400 C 328.175 212.056,328.136 212.482,328.272 213.400 M351.660 212.867 C 351.627 213.454,351.496 214.264,351.370 214.667 C 351.152 215.360,351.165 215.361,351.595 214.690 C 351.846 214.299,351.977 213.489,351.886 212.890 L 351.720 211.800 351.660 212.867 M348.581 219.300 L 347.000 221.000 348.700 219.419 C 349.635 218.549,350.400 217.784,350.400 217.719 C 350.400 217.416,350.052 217.719,348.581 219.300 M108.065 223.017 C 107.395 224.488,107.523 224.802,108.247 223.465 C 108.586 222.840,108.788 222.254,108.696 222.163 C 108.605 222.071,108.321 222.456,108.065 223.017 M274.200 229.200 C 276.612 231.620,278.676 233.600,278.786 233.600 C 278.896 233.600,277.012 231.620,274.600 229.200 C 272.188 226.780,270.124 224.800,270.014 224.800 C 269.904 224.800,271.788 226.780,274.200 229.200 M282.000 237.306 C 282.000 237.386,282.552 237.979,283.226 238.624 C 283.900 239.270,284.342 239.529,284.209 239.199 C 283.991 238.662,282.000 236.955,282.000 237.306 M292.324 249.800 C 292.526 250.240,292.792 250.870,292.914 251.200 C 293.107 251.718,293.141 251.715,293.168 251.176 C 293.186 250.834,292.920 250.204,292.578 249.776 C 291.966 249.012,291.962 249.013,292.324 249.800 M65.400 252.400 C 64.843 253.500,64.477 254.400,64.587 254.400 C 64.697 254.400,65.243 253.500,65.800 252.400 C 66.357 251.300,66.723 250.400,66.613 250.400 C 66.503 250.400,65.957 251.300,65.400 252.400 M256.326 251.214 C 255.515 251.642,254.746 252.164,254.616 252.373 C 254.431 252.674,257.676 251.081,258.367 250.532 C 258.896 250.112,257.581 250.551,256.326 251.214 M91.200 255.600 C 90.534 256.920,90.078 258.000,90.188 258.000 C 90.298 258.000,90.934 256.920,91.600 255.600 C 92.266 254.280,92.722 253.200,92.612 253.200 C 92.502 253.200,91.866 254.280,91.200 255.600 M225.100 267.829 C 223.605 268.640,223.696 268.978,225.200 268.200 C 225.860 267.859,226.400 267.494,226.400 267.390 C 226.400 267.132,226.357 267.147,225.100 267.829 M219.300 270.698 C 218.585 271.054,218.000 271.486,218.000 271.659 C 218.000 271.904,220.300 270.792,221.167 270.128 C 221.640 269.765,220.435 270.133,219.300 270.698 M265.500 274.226 C 264.455 274.770,263.600 275.305,263.600 275.414 C 263.600 275.524,264.500 275.157,265.600 274.600 C 266.700 274.043,267.600 273.500,267.600 273.393 C 267.600 273.129,267.636 273.114,265.500 274.226 M48.000 286.400 C 47.551 287.280,47.274 288.000,47.384 288.000 C 47.494 288.000,47.951 287.280,48.400 286.400 C 48.849 285.520,49.126 284.800,49.016 284.800 C 48.906 284.800,48.449 285.520,48.000 286.400 M178.900 291.898 C 178.185 292.254,177.600 292.686,177.600 292.859 C 177.600 293.104,179.900 291.992,180.767 291.328 C 181.240 290.965,180.035 291.333,178.900 291.898 M230.400 292.600 C 229.410 293.130,228.742 293.572,228.916 293.582 C 229.341 293.606,232.400 292.034,232.400 291.792 C 232.400 291.527,232.417 291.520,230.400 292.600 M70.200 296.400 C 69.643 297.500,69.277 298.400,69.387 298.400 C 69.497 298.400,70.043 297.500,70.600 296.400 C 71.157 295.300,71.523 294.400,71.413 294.400 C 71.303 294.400,70.757 295.300,70.200 296.400 M223.500 296.226 C 222.455 296.770,221.600 297.305,221.600 297.414 C 221.600 297.524,222.500 297.157,223.600 296.600 C 224.700 296.043,225.600 295.500,225.600 295.393 C 225.600 295.129,225.636 295.114,223.500 296.226 M23.200 317.000 C 16.933 323.270,11.895 328.400,12.005 328.400 C 12.115 328.400,17.333 323.270,23.600 317.000 C 29.867 310.730,34.905 305.600,34.795 305.600 C 34.685 305.600,29.467 310.730,23.200 317.000 M64.800 307.035 C 64.800 307.238,71.415 313.973,79.500 322.002 L 94.200 336.600 79.600 321.816 C 71.570 313.684,64.955 306.949,64.900 306.849 C 64.845 306.749,64.800 306.833,64.800 307.035 M143.100 310.827 C 142.275 311.263,141.600 311.708,141.600 311.818 C 141.600 311.927,142.320 311.649,143.200 311.200 C 144.080 310.751,144.800 310.297,144.800 310.192 C 144.800 309.930,144.797 309.931,143.100 310.827 M189.900 313.826 C 188.855 314.370,188.000 314.905,188.000 315.014 C 188.000 315.124,188.900 314.757,190.000 314.200 C 191.100 313.643,192.000 313.100,192.000 312.993 C 192.000 312.729,192.036 312.714,189.900 313.826 M183.500 317.227 C 182.675 317.663,182.000 318.108,182.000 318.218 C 182.000 318.327,182.720 318.049,183.600 317.600 C 184.480 317.151,185.200 316.697,185.200 316.592 C 185.200 316.330,185.197 316.331,183.500 317.227 M42.395 332.300 L 36.200 338.600 42.500 332.405 C 48.353 326.649,48.981 326.000,48.695 326.000 C 48.637 326.000,45.802 328.835,42.395 332.300 M62.191 339.093 L 75.381 352.385 73.596 354.293 L 71.812 356.200 73.803 354.298 L 75.794 352.395 62.398 339.098 L 49.002 325.800 62.191 339.093 M108.700 328.827 C 107.875 329.263,107.200 329.708,107.200 329.818 C 107.200 329.927,107.920 329.649,108.800 329.200 C 109.680 328.751,110.400 328.297,110.400 328.192 C 110.400 327.930,110.397 327.931,108.700 328.827 M9.578 330.700 L 8.200 332.200 9.700 330.822 C 11.096 329.538,11.384 329.200,11.078 329.200 C 11.012 329.200,10.337 329.875,9.578 330.700 M157.774 330.842 C 157.624 331.084,158.013 331.759,158.639 332.342 C 159.724 333.350,159.738 333.353,158.940 332.400 C 158.479 331.850,158.184 331.175,158.284 330.900 C 158.510 330.282,158.146 330.240,157.774 330.842 M101.300 332.488 C 100.805 332.727,100.400 333.081,100.400 333.275 C 100.400 333.610,101.066 333.325,102.400 332.420 C 103.184 331.887,102.451 331.933,101.300 332.488 M5.600 335.000 C 4.628 335.990,3.923 336.800,4.033 336.800 C 4.143 336.800,5.028 335.990,6.000 335.000 C 6.972 334.010,7.677 333.200,7.567 333.200 C 7.457 333.200,6.572 334.010,5.600 335.000 M31.004 343.596 C 30.374 344.254,29.935 344.856,30.029 344.934 C 30.123 345.012,30.713 344.474,31.339 343.738 C 32.754 342.077,32.545 341.988,31.004 343.596 M142.800 359.400 C 150.168 366.770,156.286 372.800,156.396 372.800 C 156.506 372.800,150.568 366.770,143.200 359.400 C 135.832 352.030,129.714 346.000,129.604 346.000 C 129.494 346.000,135.432 352.030,142.800 359.400 M177.000 351.200 C 178.528 352.740,179.869 354.000,179.979 354.000 C 180.089 354.000,178.928 352.740,177.400 351.200 C 175.872 349.660,174.531 348.400,174.421 348.400 C 174.311 348.400,175.472 349.660,177.000 351.200 M147.800 356.400 C 150.874 359.480,153.479 362.000,153.589 362.000 C 153.699 362.000,151.274 359.480,148.200 356.400 C 145.126 353.320,142.521 350.800,142.411 350.800 C 142.301 350.800,144.726 353.320,147.800 356.400 M6.000 355.800 C 6.746 356.570,7.447 357.200,7.557 357.200 C 7.667 357.200,7.146 356.570,6.400 355.800 C 5.654 355.030,4.953 354.400,4.843 354.400 C 4.733 354.400,5.254 355.030,6.000 355.800 M63.822 363.978 C 59.879 367.926,56.478 371.048,56.264 370.916 C 56.038 370.776,56.007 370.888,56.189 371.183 C 56.436 371.583,71.200 357.539,71.200 356.904 C 71.200 356.621,70.490 357.302,63.822 363.978 M108.800 359.800 C 109.995 361.010,111.063 362.000,111.173 362.000 C 111.283 362.000,110.395 361.010,109.200 359.800 C 108.005 358.590,106.937 357.600,106.827 357.600 C 106.717 357.600,107.605 358.590,108.800 359.800 M17.000 367.200 C 21.176 371.380,24.682 374.800,24.792 374.800 C 24.902 374.800,21.576 371.380,17.400 367.200 C 13.224 363.020,9.718 359.600,9.608 359.600 C 9.498 359.600,12.824 363.020,17.000 367.200 M100.255 362.383 C 99.235 363.473,98.400 364.493,98.400 364.650 C 98.400 364.806,98.457 364.858,98.527 364.767 C 98.597 364.675,99.522 363.655,100.582 362.500 C 101.642 361.345,102.419 360.400,102.309 360.400 C 102.199 360.400,101.275 361.292,100.255 362.383 M155.663 365.067 C 156.145 365.580,156.727 366.000,156.957 366.000 C 157.187 366.000,158.371 366.944,159.587 368.098 C 160.843 369.289,160.536 368.886,158.876 367.165 C 157.268 365.498,155.690 364.133,155.369 364.133 C 154.942 364.133,155.020 364.383,155.663 365.067 M188.856 364.945 C 189.139 365.575,189.442 365.873,189.531 365.606 C 189.620 365.340,189.389 364.824,189.018 364.461 C 188.386 363.842,188.376 363.873,188.856 364.945 M190.249 368.829 C 190.390 369.583,190.648 370.357,190.822 370.549 C 190.996 370.741,190.988 370.232,190.804 369.417 C 190.375 367.515,189.910 367.022,190.249 368.829 M87.195 375.100 L 81.000 381.400 87.300 375.205 C 93.153 369.449,93.781 368.800,93.495 368.800 C 93.437 368.800,90.602 371.635,87.195 375.100 M190.869 372.000 C 190.856 372.550,190.995 373.720,191.177 374.600 C 191.389 375.626,191.516 375.841,191.531 375.200 C 191.544 374.650,191.405 373.480,191.223 372.600 C 191.011 371.574,190.884 371.359,190.869 372.000 M163.600 372.525 C 163.600 372.594,164.185 373.179,164.900 373.825 L 166.200 375.000 165.025 373.700 C 163.930 372.488,163.600 372.216,163.600 372.525 M125.000 376.000 C 126.306 377.320,127.465 378.400,127.575 378.400 C 127.685 378.400,126.706 377.320,125.400 376.000 C 124.094 374.680,122.935 373.600,122.825 373.600 C 122.715 373.600,123.694 374.680,125.000 376.000 M25.233 375.375 C 25.325 375.471,27.981 378.156,31.135 381.340 C 34.290 384.525,36.855 387.236,36.835 387.365 C 36.816 387.494,36.935 387.611,37.100 387.624 C 37.265 387.638,37.850 388.036,38.400 388.511 C 38.950 388.985,36.252 386.184,32.404 382.286 C 28.557 378.389,25.332 375.200,25.238 375.200 C 25.144 375.200,25.142 375.279,25.233 375.375 M191.040 378.840 C 190.893 379.757,190.852 380.585,190.947 380.680 C 191.042 380.776,191.246 380.110,191.400 379.200 C 191.554 378.290,191.596 377.462,191.493 377.360 C 191.390 377.257,191.187 377.923,191.040 378.840 M75.391 386.900 L 72.200 390.200 75.500 387.009 C 77.315 385.255,78.800 383.770,78.800 383.709 C 78.800 383.418,78.354 383.835,75.391 386.900 M189.116 385.513 L 188.432 387.000 189.216 386.056 C 189.647 385.536,190.000 384.861,190.000 384.556 C 190.000 383.733,189.870 383.873,189.116 385.513 M141.200 391.800 C 142.617 393.230,143.867 394.400,143.977 394.400 C 144.087 394.400,143.017 393.230,141.600 391.800 C 140.183 390.370,138.933 389.200,138.823 389.200 C 138.713 389.200,139.783 390.370,141.200 391.800 M69.775 392.500 L 68.600 393.800 69.900 392.625 C 71.112 391.530,71.384 391.200,71.075 391.200 C 71.006 391.200,70.421 391.785,69.775 392.500 M45.800 395.600 C 47.106 396.920,48.265 398.000,48.375 398.000 C 48.485 398.000,47.506 396.920,46.200 395.600 C 44.894 394.280,43.735 393.200,43.625 393.200 C 43.515 393.200,44.494 394.280,45.800 395.600 M66.400 395.400 C 65.428 396.390,64.723 397.200,64.833 397.200 C 64.943 397.200,65.828 396.390,66.800 395.400 C 67.772 394.410,68.477 393.600,68.367 393.600 C 68.257 393.600,67.372 394.410,66.400 395.400 M181.381 395.300 L 179.800 397.000 181.500 395.419 C 183.081 393.948,183.384 393.600,183.081 393.600 C 183.016 393.600,182.251 394.365,181.381 395.300 M145.600 395.725 C 145.600 395.794,146.185 396.379,146.900 397.025 L 148.200 398.200 147.025 396.900 C 145.930 395.688,145.600 395.416,145.600 395.725 " stroke="none" fill="#565656" fill-rule="evenodd"></path><path id="path3" d="M264.609 11.913 C 265.247 12.459,267.270 13.237,267.026 12.842 C 266.903 12.642,266.220 12.276,265.510 12.029 C 264.799 11.781,264.394 11.729,264.609 11.913 M189.800 24.798 C 191.012 25.109,195.475 25.323,195.167 25.056 C 195.075 24.977,193.560 24.817,191.800 24.702 C 189.985 24.582,189.119 24.624,189.800 24.798 M204.000 25.200 C 205.368 25.638,206.419 25.638,205.400 25.200 C 204.960 25.011,204.240 24.862,203.800 24.868 C 203.157 24.877,203.196 24.943,204.000 25.200 M189.900 48.282 C 190.395 48.378,191.205 48.378,191.700 48.282 C 192.195 48.187,191.790 48.109,190.800 48.109 C 189.810 48.109,189.405 48.187,189.900 48.282 M200.500 48.276 C 200.885 48.376,201.515 48.376,201.900 48.276 C 202.285 48.175,201.970 48.093,201.200 48.093 C 200.430 48.093,200.115 48.175,200.500 48.276 M176.400 61.753 C 176.400 62.083,176.580 62.464,176.800 62.600 C 177.020 62.736,177.200 62.577,177.200 62.247 C 177.200 61.917,177.020 61.536,176.800 61.400 C 176.580 61.264,176.400 61.423,176.400 61.753 M195.700 73.087 C 196.305 73.178,197.295 73.178,197.900 73.087 C 198.505 72.995,198.010 72.920,196.800 72.920 C 195.590 72.920,195.095 72.995,195.700 73.087 M322.200 77.200 C 323.728 78.740,325.069 80.000,325.179 80.000 C 325.289 80.000,324.128 78.740,322.600 77.200 C 321.072 75.660,319.731 74.400,319.621 74.400 C 319.511 74.400,320.672 75.660,322.200 77.200 M249.600 84.640 C 249.600 84.905,254.879 87.255,255.062 87.071 C 255.144 86.990,253.948 86.366,252.405 85.685 C 250.862 85.003,249.600 84.533,249.600 84.640 M306.000 93.800 C 306.746 94.570,307.447 95.200,307.557 95.200 C 307.667 95.200,307.146 94.570,306.400 93.800 C 305.654 93.030,304.953 92.400,304.843 92.400 C 304.733 92.400,305.254 93.030,306.000 93.800 M189.743 96.306 C 189.492 96.468,191.292 96.618,193.743 96.639 C 197.027 96.668,197.726 96.597,196.400 96.369 C 194.060 95.967,190.326 95.931,189.743 96.306 M284.800 108.125 C 284.800 108.194,285.385 108.779,286.100 109.425 L 287.400 110.600 286.225 109.300 C 285.130 108.088,284.800 107.816,284.800 108.125 M152.839 108.500 C 152.935 108.555,153.820 109.320,154.806 110.200 L 156.600 111.800 155.019 110.100 C 154.149 109.165,153.264 108.400,153.052 108.400 C 152.840 108.400,152.744 108.445,152.839 108.500 M135.665 115.417 C 134.995 116.888,135.123 117.202,135.847 115.865 C 136.186 115.240,136.388 114.654,136.296 114.563 C 136.205 114.471,135.921 114.856,135.665 115.417 M166.000 120.925 C 166.000 120.994,166.585 121.579,167.300 122.225 L 168.600 123.400 167.425 122.100 C 166.330 120.888,166.000 120.616,166.000 120.925 M188.000 121.200 C 188.000 121.441,189.667 121.600,192.200 121.600 C 194.733 121.600,196.400 121.441,196.400 121.200 C 196.400 120.959,194.733 120.800,192.200 120.800 C 189.667 120.800,188.000 120.959,188.000 121.200 M131.478 123.405 C 131.112 124.172,130.895 124.800,130.996 124.800 C 131.270 124.800,132.484 122.351,132.301 122.168 C 132.214 122.081,131.844 122.638,131.478 123.405 M356.400 124.315 C 356.400 125.045,357.300 126.800,357.674 126.800 C 357.865 126.800,357.723 126.215,357.359 125.500 C 356.560 123.929,356.400 123.731,356.400 124.315 M172.000 126.525 C 172.000 126.594,172.585 127.179,173.300 127.825 L 174.600 129.000 173.425 127.700 C 172.330 126.488,172.000 126.216,172.000 126.525 M387.018 132.500 C 387.168 132.995,387.455 133.576,387.656 133.791 C 387.857 134.006,387.819 133.601,387.572 132.891 C 387.065 131.438,386.597 131.108,387.018 132.500 M188.600 143.200 C 189.906 144.520,191.065 145.600,191.175 145.600 C 191.285 145.600,190.306 144.520,189.000 143.200 C 187.694 141.880,186.535 140.800,186.425 140.800 C 186.315 140.800,187.294 141.880,188.600 143.200 M251.200 142.786 C 251.200 142.998,251.605 143.384,252.100 143.644 C 252.995 144.114,252.996 144.112,252.238 143.258 C 251.391 142.305,251.200 142.218,251.200 142.786 M155.200 145.367 C 156.190 146.409,157.360 147.450,157.800 147.681 C 158.869 148.241,156.157 145.377,154.600 144.301 C 153.682 143.667,153.823 143.918,155.200 145.367 M253.600 144.525 C 253.600 144.594,254.185 145.179,254.900 145.825 L 256.200 147.000 255.025 145.700 C 253.930 144.488,253.600 144.216,253.600 144.525 M146.678 148.605 C 146.312 149.372,146.095 150.000,146.196 150.000 C 146.470 150.000,147.684 147.551,147.501 147.368 C 147.414 147.281,147.044 147.838,146.678 148.605 M144.272 153.419 C 143.332 155.389,143.464 155.724,144.447 153.862 C 144.893 153.016,145.187 152.254,145.101 152.167 C 145.014 152.081,144.641 152.644,144.272 153.419 M115.481 154.200 C 115.113 154.970,114.957 155.600,115.132 155.600 C 115.308 155.600,115.752 154.970,116.119 154.200 C 116.487 153.430,116.643 152.800,116.468 152.800 C 116.292 152.800,115.848 153.430,115.481 154.200 M171.000 160.400 C 172.971 162.380,174.673 164.000,174.783 164.000 C 174.893 164.000,173.371 162.380,171.400 160.400 C 169.429 158.420,167.727 156.800,167.617 156.800 C 167.507 156.800,169.029 158.420,171.000 160.400 M111.082 163.011 C 110.492 164.215,110.094 165.200,110.198 165.200 C 110.467 165.200,112.484 161.151,112.305 160.971 C 112.223 160.889,111.673 161.807,111.082 163.011 M229.598 183.712 C 244.978 199.174,248.039 202.174,246.351 200.141 C 245.445 199.049,220.836 174.485,216.569 170.412 C 214.386 168.329,220.249 174.314,229.598 183.712 M184.800 174.200 C 187.543 176.950,189.878 179.200,189.988 179.200 C 190.098 179.200,187.943 176.950,185.200 174.200 C 182.457 171.450,180.122 169.200,180.012 169.200 C 179.902 169.200,182.057 171.450,184.800 174.200 M125.800 188.800 C 125.459 189.460,125.269 190.000,125.379 190.000 C 125.489 190.000,125.859 189.460,126.200 188.800 C 126.541 188.140,126.731 187.600,126.621 187.600 C 126.511 187.600,126.141 188.140,125.800 188.800 M94.981 194.437 C 94.629 195.118,94.412 195.745,94.499 195.832 C 94.586 195.919,94.956 195.362,95.322 194.595 C 96.144 192.870,95.859 192.738,94.981 194.437 M205.583 194.900 C 206.564 195.945,207.419 196.800,207.483 196.800 C 207.784 196.800,207.466 196.441,205.700 194.783 L 203.800 193.000 205.583 194.900 M302.834 194.000 C 302.846 194.330,303.011 194.960,303.200 195.400 L 303.544 196.200 303.566 195.400 C 303.578 194.960,303.413 194.330,303.200 194.000 C 302.855 193.467,302.815 193.467,302.834 194.000 M374.468 195.800 C 374.474 196.240,374.624 197.050,374.800 197.600 L 375.120 198.600 375.132 197.600 C 375.138 197.050,374.989 196.240,374.800 195.800 L 374.456 195.000 374.468 195.800 M278.000 197.976 C 278.000 198.429,278.180 198.800,278.400 198.800 C 278.620 198.800,278.800 198.541,278.800 198.224 C 278.800 197.907,278.620 197.536,278.400 197.400 C 278.180 197.264,278.000 197.523,278.000 197.976 M352.534 204.400 C 352.534 206.050,352.605 206.725,352.691 205.900 C 352.778 205.075,352.778 203.725,352.691 202.900 C 352.605 202.075,352.534 202.750,352.534 204.400 M90.081 203.809 C 89.602 204.794,89.294 205.600,89.397 205.600 C 89.668 205.600,91.284 202.351,91.103 202.170 C 91.019 202.086,90.559 202.824,90.081 203.809 M303.293 207.600 C 303.284 210.872,303.338 211.190,303.685 209.885 C 303.950 208.883,303.954 207.597,303.695 206.085 C 303.305 203.811,303.303 203.818,303.293 207.600 M278.400 205.000 C 278.400 205.330,278.580 205.600,278.800 205.600 C 279.020 205.600,279.200 205.330,279.200 205.000 C 279.200 204.670,279.020 204.400,278.800 204.400 C 278.580 204.400,278.400 204.670,278.400 205.000 M374.868 205.200 C 374.862 205.750,375.011 206.560,375.200 207.000 L 375.544 207.800 375.532 207.000 C 375.526 206.560,375.376 205.750,375.200 205.200 L 374.880 204.200 374.868 205.200 M266.200 220.800 C 270.376 224.980,273.882 228.400,273.992 228.400 C 274.102 228.400,270.776 224.980,266.600 220.800 C 262.424 216.620,258.918 213.200,258.808 213.200 C 258.698 213.200,262.024 216.620,266.200 220.800 M110.200 219.200 C 109.859 219.860,109.669 220.400,109.779 220.400 C 109.889 220.400,110.259 219.860,110.600 219.200 C 110.941 218.540,111.131 218.000,111.021 218.000 C 110.911 218.000,110.541 218.540,110.200 219.200 M290.200 222.800 C 290.336 223.020,290.876 223.200,291.400 223.200 C 291.924 223.200,292.464 223.020,292.600 222.800 C 292.747 222.561,292.263 222.400,291.400 222.400 C 290.537 222.400,290.053 222.561,290.200 222.800 M105.082 229.011 C 104.492 230.215,104.094 231.200,104.198 231.200 C 104.467 231.200,106.484 227.151,106.305 226.971 C 106.223 226.889,105.673 227.807,105.082 229.011 M276.000 230.525 C 276.000 230.594,276.585 231.179,277.300 231.825 L 278.600 233.000 277.425 231.700 C 276.330 230.488,276.000 230.216,276.000 230.525 M73.180 236.839 C 72.720 237.740,72.413 238.546,72.497 238.630 C 72.581 238.714,73.041 237.976,73.519 236.991 C 74.609 234.747,74.315 234.615,73.180 236.839 M284.587 239.575 C 284.921 240.221,285.376 240.861,285.598 240.999 C 285.820 241.136,285.623 240.607,285.161 239.824 C 284.148 238.107,283.735 237.928,284.587 239.575 M247.700 255.596 C 246.985 256.032,246.400 256.475,246.400 256.581 C 246.400 256.686,247.030 256.401,247.800 255.947 C 248.570 255.493,249.200 255.049,249.200 254.960 C 249.200 254.705,249.074 254.758,247.700 255.596 M88.580 261.240 C 88.011 262.362,87.613 263.347,87.695 263.429 C 87.777 263.511,88.327 262.593,88.918 261.389 C 89.508 260.185,89.906 259.200,89.802 259.200 C 89.698 259.200,89.148 260.118,88.580 261.240 M84.708 268.900 C 83.833 270.249,83.048 271.856,83.487 271.400 C 84.048 270.817,85.698 268.000,85.479 268.000 C 85.376 268.000,85.029 268.405,84.708 268.900 M55.082 271.811 C 54.492 273.015,54.094 274.000,54.198 274.000 C 54.467 274.000,56.484 269.951,56.305 269.771 C 56.223 269.689,55.673 270.607,55.082 271.811 M214.700 273.029 C 213.205 273.840,213.296 274.178,214.800 273.400 C 215.460 273.059,216.000 272.694,216.000 272.590 C 216.000 272.332,215.957 272.347,214.700 273.029 M51.380 279.240 C 50.811 280.362,50.413 281.347,50.495 281.429 C 50.577 281.511,51.127 280.593,51.718 279.389 C 52.308 278.185,52.706 277.200,52.602 277.200 C 52.498 277.200,51.948 278.118,51.380 279.240 M234.700 290.626 C 233.655 291.170,232.800 291.705,232.800 291.814 C 232.800 291.993,236.760 290.123,237.167 289.752 C 237.662 289.301,236.361 289.762,234.700 290.626 M174.300 294.229 C 172.805 295.040,172.896 295.378,174.400 294.600 C 175.060 294.259,175.600 293.894,175.600 293.790 C 175.600 293.532,175.557 293.547,174.300 294.229 M168.500 297.098 C 167.785 297.454,167.200 297.886,167.200 298.059 C 167.200 298.232,167.830 298.001,168.600 297.547 C 170.665 296.329,170.603 296.051,168.500 297.098 M67.275 302.619 C 66.070 305.100,66.205 305.447,67.446 303.061 C 68.001 301.994,68.387 301.053,68.303 300.970 C 68.219 300.886,67.757 301.628,67.275 302.619 M205.723 305.678 C 205.241 305.911,204.758 306.334,204.649 306.618 C 204.510 306.979,204.803 306.933,205.623 306.467 C 206.267 306.100,206.796 305.665,206.797 305.500 C 206.800 305.146,206.837 305.140,205.723 305.678 M29.592 310.300 L 25.800 314.200 29.700 310.408 C 33.322 306.886,33.782 306.400,33.492 306.400 C 33.433 306.400,31.678 308.155,29.592 310.300 M70.383 312.500 C 72.041 314.266,72.400 314.584,72.400 314.283 C 72.400 314.219,71.545 313.364,70.500 312.383 L 68.600 310.600 70.383 312.500 M139.500 312.427 C 138.675 312.863,138.000 313.308,138.000 313.418 C 138.000 313.527,138.720 313.249,139.600 312.800 C 140.480 312.351,141.200 311.897,141.200 311.792 C 141.200 311.530,141.197 311.531,139.500 312.427 M132.700 316.027 C 131.875 316.463,131.200 316.908,131.200 317.018 C 131.200 317.127,131.920 316.849,132.800 316.400 C 133.680 315.951,134.400 315.497,134.400 315.392 C 134.400 315.130,134.397 315.131,132.700 316.027 M126.800 319.000 C 126.250 319.314,125.980 319.572,126.200 319.572 C 126.420 319.572,127.050 319.314,127.600 319.000 C 128.150 318.686,128.420 318.428,128.200 318.428 C 127.980 318.428,127.350 318.686,126.800 319.000 M166.500 326.396 C 165.785 326.832,165.200 327.275,165.200 327.381 C 165.200 327.486,165.830 327.201,166.600 326.747 C 167.370 326.293,168.000 325.849,168.000 325.760 C 168.000 325.505,167.874 325.558,166.500 326.396 M39.600 335.454 C 34.430 340.575,30.421 344.773,30.691 344.782 C 30.961 344.792,31.465 344.367,31.812 343.837 C 32.159 343.308,36.226 339.228,40.848 334.772 L 49.254 326.670 52.927 330.235 L 56.600 333.800 52.808 329.900 C 50.722 327.755,49.012 326.032,49.008 326.072 C 49.004 326.111,44.770 330.333,39.600 335.454 M89.800 332.000 C 91.106 333.320,92.265 334.400,92.375 334.400 C 92.485 334.400,91.506 333.320,90.200 332.000 C 88.894 330.680,87.735 329.600,87.625 329.600 C 87.515 329.600,88.494 330.680,89.800 332.000 M95.900 335.227 C 95.075 335.663,94.400 336.108,94.400 336.218 C 94.400 336.396,97.559 334.919,97.967 334.551 C 98.427 334.134,97.225 334.528,95.900 335.227 M170.400 344.200 C 174.025 347.830,177.081 350.800,177.191 350.800 C 177.301 350.800,174.425 347.830,170.800 344.200 C 167.175 340.570,164.119 337.600,164.009 337.600 C 163.899 337.600,166.775 340.570,170.400 344.200 M130.276 345.746 C 130.154 346.065,131.090 347.267,132.533 348.646 L 135.000 351.000 132.747 348.600 C 131.508 347.280,130.578 345.975,130.680 345.700 C 130.783 345.425,130.781 345.200,130.676 345.200 C 130.571 345.200,130.391 345.446,130.276 345.746 M71.812 349.205 C 73.565 351.078,75.082 352.557,75.182 352.490 C 75.282 352.424,73.847 350.892,71.993 349.085 L 68.623 345.800 71.812 349.205 M137.949 347.738 C 138.251 348.102,138.697 348.400,138.940 348.400 C 139.182 348.400,140.735 349.705,142.391 351.300 L 145.400 354.200 142.600 351.270 C 140.098 348.653,136.340 345.799,137.949 347.738 M43.600 358.600 C 46.343 361.350,48.678 363.600,48.788 363.600 C 48.898 363.600,46.743 361.350,44.000 358.600 C 41.257 355.850,38.922 353.600,38.812 353.600 C 38.702 353.600,40.857 355.850,43.600 358.600 M108.800 360.200 C 110.217 361.630,111.467 362.800,111.577 362.800 C 111.687 362.800,110.617 361.630,109.200 360.200 C 107.783 358.770,106.533 357.600,106.423 357.600 C 106.313 357.600,107.383 358.770,108.800 360.200 M152.843 361.953 C 153.810 363.026,154.870 364.026,155.200 364.174 C 155.530 364.322,154.816 363.443,153.614 362.221 C 150.913 359.478,150.481 359.327,152.843 361.953 M112.873 364.300 C 113.136 364.685,114.443 365.984,115.776 367.187 L 118.200 369.374 115.411 366.487 C 112.542 363.518,112.042 363.087,112.873 364.300 M92.027 370.679 L 86.200 376.558 91.800 371.202 C 94.880 368.257,97.664 365.611,97.986 365.323 C 98.308 365.035,98.410 364.800,98.213 364.800 C 98.016 364.800,95.232 367.445,92.027 370.679 M153.800 370.000 C 156.654 372.860,159.078 375.200,159.188 375.200 C 159.298 375.200,157.054 372.860,154.200 370.000 C 151.346 367.140,148.922 364.800,148.812 364.800 C 148.702 364.800,150.946 367.140,153.800 370.000 M25.400 376.000 C 28.033 378.640,30.277 380.800,30.387 380.800 C 30.497 380.800,28.433 378.640,25.800 376.000 C 23.167 373.360,20.923 371.200,20.813 371.200 C 20.703 371.200,22.767 373.360,25.400 376.000 M133.000 384.000 C 134.750 385.760,136.271 387.200,136.381 387.200 C 136.491 387.200,135.150 385.760,133.400 384.000 C 131.650 382.240,130.129 380.800,130.019 380.800 C 129.909 380.800,131.250 382.240,133.000 384.000 M37.400 388.254 C 37.620 388.448,38.429 389.145,39.199 389.803 L 40.597 391.000 39.599 389.863 C 39.049 389.238,38.240 388.541,37.800 388.314 C 37.360 388.088,37.180 388.061,37.400 388.254 M43.983 394.100 C 45.641 395.866,46.000 396.184,46.000 395.883 C 46.000 395.819,45.145 394.964,44.100 393.983 L 42.200 392.200 43.983 394.100 M145.200 395.725 C 145.200 395.794,145.785 396.379,146.500 397.025 L 147.800 398.200 146.625 396.900 C 145.530 395.688,145.200 395.416,145.200 395.725 " stroke="none" fill="#848484" fill-rule="evenodd"></path><path id="path4" d="M191.505 24.683 C 192.002 24.779,192.722 24.775,193.105 24.675 C 193.487 24.575,193.080 24.496,192.200 24.501 C 191.320 24.505,191.007 24.587,191.505 24.683 M193.305 48.287 C 193.914 48.379,194.814 48.377,195.305 48.282 C 195.797 48.187,195.300 48.111,194.200 48.114 C 193.100 48.117,192.697 48.195,193.305 48.287 M197.905 48.283 C 198.402 48.379,199.122 48.375,199.505 48.275 C 199.887 48.175,199.480 48.096,198.600 48.101 C 197.720 48.105,197.407 48.187,197.905 48.283 M176.587 60.040 C 176.441 60.502,176.488 61.048,176.694 61.254 C 176.924 61.484,177.067 61.164,177.067 60.413 C 177.067 58.984,176.951 58.894,176.587 60.040 M302.400 90.525 C 302.400 90.594,302.985 91.179,303.700 91.825 L 305.000 93.000 303.825 91.700 C 302.730 90.488,302.400 90.216,302.400 90.525 M308.000 96.125 C 308.000 96.194,308.585 96.779,309.300 97.425 L 310.600 98.600 309.425 97.300 C 308.330 96.088,308.000 95.816,308.000 96.125 M191.300 96.687 C 191.905 96.778,192.895 96.778,193.500 96.687 C 194.105 96.595,193.610 96.520,192.400 96.520 C 191.190 96.520,190.695 96.595,191.300 96.687 M288.000 111.000 C 288.746 111.770,289.447 112.400,289.557 112.400 C 289.667 112.400,289.146 111.770,288.400 111.000 C 287.654 110.230,286.953 109.600,286.843 109.600 C 286.733 109.600,287.254 110.230,288.000 111.000 M196.400 121.200 C 196.400 121.420,196.670 121.600,197.000 121.600 C 197.330 121.600,197.600 121.420,197.600 121.200 C 197.600 120.980,197.330 120.800,197.000 120.800 C 196.670 120.800,196.400 120.980,196.400 121.200 M195.800 150.400 C 197.771 152.380,199.473 154.000,199.583 154.000 C 199.693 154.000,198.171 152.380,196.200 150.400 C 194.229 148.420,192.527 146.800,192.417 146.800 C 192.307 146.800,193.829 148.420,195.800 150.400 M163.600 153.000 C 165.681 155.090,167.474 156.800,167.584 156.800 C 167.694 156.800,166.081 155.090,164.000 153.000 C 161.919 150.910,160.126 149.200,160.016 149.200 C 159.906 149.200,161.519 150.910,163.600 153.000 M202.400 156.925 C 202.400 156.994,202.985 157.579,203.700 158.225 L 205.000 159.400 203.825 158.100 C 202.730 156.888,202.400 156.616,202.400 156.925 M205.200 159.725 C 205.200 159.794,205.785 160.379,206.500 161.025 L 207.800 162.200 206.625 160.900 C 205.530 159.688,205.200 159.416,205.200 159.725 M241.200 195.725 C 241.200 195.794,241.785 196.379,242.500 197.025 L 243.800 198.200 242.625 196.900 C 241.530 195.688,241.200 195.416,241.200 195.725 M245.583 200.100 C 246.564 201.145,247.419 202.000,247.483 202.000 C 247.784 202.000,247.466 201.641,245.700 199.983 L 243.800 198.200 245.583 200.100 M257.000 211.600 C 257.859 212.480,258.652 213.200,258.762 213.200 C 258.872 213.200,258.259 212.480,257.400 211.600 C 256.541 210.720,255.748 210.000,255.638 210.000 C 255.528 210.000,256.141 210.720,257.000 211.600 M49.078 283.805 C 48.712 284.572,48.495 285.200,48.596 285.200 C 48.870 285.200,50.084 282.751,49.901 282.568 C 49.814 282.481,49.444 283.038,49.078 283.805 M68.981 299.237 C 68.629 299.918,68.412 300.545,68.499 300.632 C 68.586 300.719,68.956 300.162,69.322 299.395 C 70.144 297.670,69.859 297.538,68.981 299.237 M44.792 330.300 L 41.000 334.200 44.900 330.408 C 47.045 328.322,48.800 326.567,48.800 326.508 C 48.800 326.218,48.314 326.678,44.792 330.300 M162.200 336.000 C 163.059 336.880,163.852 337.600,163.962 337.600 C 164.072 337.600,163.459 336.880,162.600 336.000 C 161.741 335.120,160.948 334.400,160.838 334.400 C 160.728 334.400,161.341 335.120,162.200 336.000 M34.393 349.300 C 36.699 351.665,38.634 353.600,38.693 353.600 C 38.982 353.600,38.494 353.087,34.500 349.193 L 30.200 345.000 34.393 349.300 M116.200 367.200 C 119.054 370.060,121.478 372.400,121.588 372.400 C 121.698 372.400,119.454 370.060,116.600 367.200 C 113.746 364.340,111.322 362.000,111.212 362.000 C 111.102 362.000,113.346 364.340,116.200 367.200 M12.800 363.600 C 13.035 364.040,13.430 364.400,13.676 364.400 C 13.922 364.400,13.798 364.040,13.400 363.600 C 13.002 363.160,12.608 362.800,12.524 362.800 C 12.440 362.800,12.565 363.160,12.800 363.600 M51.000 366.000 C 52.306 367.320,53.465 368.400,53.575 368.400 C 53.685 368.400,52.706 367.320,51.400 366.000 C 50.094 364.680,48.935 363.600,48.825 363.600 C 48.715 363.600,49.694 364.680,51.000 366.000 M40.600 390.800 C 41.459 391.680,42.252 392.400,42.362 392.400 C 42.472 392.400,41.859 391.680,41.000 390.800 C 40.141 389.920,39.348 389.200,39.238 389.200 C 39.128 389.200,39.741 389.920,40.600 390.800 " stroke="none" fill="#7c7c7c" fill-rule="evenodd"></path></g></svg>